<?xml version="1.0" encoding="UTF-8" standalone="no"?>
<!DOCTYPE svg PUBLIC "-//W3C//DTD SVG 1.1//EN"
 "http://www.w3.org/Graphics/SVG/1.1/DTD/svg11.dtd">
<!-- Generated by graphviz version 14.1.3 (20260303.0454)
 -->
<!-- Title: architecture Pages: 1 -->
<svg width="736pt" height="269pt"
 viewBox="0.00 0.00 736.00 269.00" xmlns="http://www.w3.org/2000/svg" xmlns:xlink="http://www.w3.org/1999/xlink">
<g id="graph0" class="graph" transform="scale(1 1) rotate(0) translate(4 265)">
<title>architecture</title>
<polygon fill="white" stroke="none" points="-4,4 -4,-265 732,-265 732,4 -4,4"/>
<g id="clust1" class="cluster">
<title>cluster_ui</title>
<polygon fill="lightblue" stroke="lightblue" points="8,-92.5 8,-253 208,-253 208,-92.5 8,-92.5"/>
<text xml:space="preserve" text-anchor="middle" x="108" y="-235.7" font-family="Times New Roman,serif" font-size="14.00">GUI Layer (PySide6)</text>
</g>
<g id="clust2" class="cluster">
<title>cluster_vpn</title>
<polygon fill="lightgreen" stroke="lightgreen" points="216,-95 216,-171.5 667,-171.5 667,-95 216,-95"/>
<text xml:space="preserve" text-anchor="middle" x="441.5" y="-154.2" font-family="Times New Roman,serif" font-size="14.00">VPN Core (Handler Layer)</text>
</g>
<g id="clust3" class="cluster">
<title>cluster_utils</title>
<polygon fill="lightyellow" stroke="lightyellow" points="133,-8 133,-84.5 388,-84.5 388,-8 133,-8"/>
<text xml:space="preserve" text-anchor="middle" x="260.5" y="-67.2" font-family="Times New Roman,serif" font-size="14.00">Utilities &amp; Logging</text>
</g>
<g id="clust4" class="cluster">
<title>cluster_data</title>
<polygon fill="lightcyan" stroke="lightcyan" points="396,-8 396,-84.5 720,-84.5 720,-8 396,-8"/>
<text xml:space="preserve" text-anchor="middle" x="558" y="-67.2" font-family="Times New Roman,serif" font-size="14.00">Data Layer (Config)</text>
</g>
<!-- MainWindow -->
<g id="node1" class="node">
<title>MainWindow</title>
<path fill="none" stroke="black" d="M187.88,-220.5C187.88,-220.5 120.12,-220.5 120.12,-220.5 114.12,-220.5 108.12,-214.5 108.12,-208.5 108.12,-208.5 108.12,-191.5 108.12,-191.5 108.12,-185.5 114.12,-179.5 120.12,-179.5 120.12,-179.5 187.88,-179.5 187.88,-179.5 193.88,-179.5 199.88,-185.5 199.88,-191.5 199.88,-191.5 199.88,-208.5 199.88,-208.5 199.88,-214.5 193.88,-220.5 187.88,-220.5"/>
<text xml:space="preserve" text-anchor="middle" x="154" y="-203.2" font-family="Times New Roman,serif" font-size="14.00">MainWindow</text>
<text xml:space="preserve" text-anchor="middle" x="154" y="-186.7" font-family="Times New Roman,serif" font-size="14.00">(760 LOC)</text>
</g>
<!-- ServerGrid -->
<g id="node2" class="node">
<title>ServerGrid</title>
<path fill="none" stroke="black" d="M80,-141.5C80,-141.5 28,-141.5 28,-141.5 22,-141.5 16,-135.5 16,-129.5 16,-129.5 16,-112.5 16,-112.5 16,-106.5 22,-100.5 28,-100.5 28,-100.5 80,-100.5 80,-100.5 86,-100.5 92,-106.5 92,-112.5 92,-112.5 92,-129.5 92,-129.5 92,-135.5 86,-141.5 80,-141.5"/>
<text xml:space="preserve" text-anchor="middle" x="54" y="-124.2" font-family="Times New Roman,serif" font-size="14.00">ServerGrid</text>
<text xml:space="preserve" text-anchor="middle" x="54" y="-107.7" font-family="Times New Roman,serif" font-size="14.00">(320 LOC)</text>
</g>
<!-- MainWindow&#45;&gt;ServerGrid -->
<g id="edge1" class="edge">
<title>MainWindow&#45;&gt;ServerGrid</title>
<path fill="none" stroke="black" d="M112.38,-179.13C108.42,-176.74 104.56,-174.18 101,-171.5 92.83,-165.36 84.83,-157.73 77.82,-150.32"/>
<polygon fill="black" stroke="black" points="80.42,-147.98 71.1,-142.95 75.24,-152.7 80.42,-147.98"/>
</g>
<!-- SettingsPanel -->
<g id="node3" class="node">
<title>SettingsPanel</title>
<path fill="none" stroke="black" d="M187.75,-141.5C187.75,-141.5 122.25,-141.5 122.25,-141.5 116.25,-141.5 110.25,-135.5 110.25,-129.5 110.25,-129.5 110.25,-112.5 110.25,-112.5 110.25,-106.5 116.25,-100.5 122.25,-100.5 122.25,-100.5 187.75,-100.5 187.75,-100.5 193.75,-100.5 199.75,-106.5 199.75,-112.5 199.75,-112.5 199.75,-129.5 199.75,-129.5 199.75,-135.5 193.75,-141.5 187.75,-141.5"/>
<text xml:space="preserve" text-anchor="middle" x="155" y="-124.2" font-family="Times New Roman,serif" font-size="14.00">SettingsPanel</text>
<text xml:space="preserve" text-anchor="middle" x="155" y="-107.7" font-family="Times New Roman,serif" font-size="14.00">(780 LOC)</text>
</g>
<!-- MainWindow&#45;&gt;SettingsPanel -->
<g id="edge2" class="edge">
<title>MainWindow&#45;&gt;SettingsPanel</title>
<path fill="none" stroke="black" d="M154.26,-179.17C154.36,-171.27 154.48,-161.98 154.59,-153.21"/>
<polygon fill="black" stroke="black" points="158.09,-153.32 154.72,-143.28 151.09,-153.23 158.09,-153.32"/>
</g>
<!-- WireGuardHandler -->
<g id="node4" class="node">
<title>WireGuardHandler</title>
<path fill="none" stroke="black" d="M647.12,-139C647.12,-139 550.88,-139 550.88,-139 544.88,-139 538.88,-133 538.88,-127 538.88,-127 538.88,-115 538.88,-115 538.88,-109 544.88,-103 550.88,-103 550.88,-103 647.12,-103 647.12,-103 653.12,-103 659.12,-109 659.12,-115 659.12,-115 659.12,-127 659.12,-127 659.12,-133 653.12,-139 647.12,-139"/>
<text xml:space="preserve" text-anchor="middle" x="599" y="-115.95" font-family="Times New Roman,serif" font-size="14.00">WireGuardHandler</text>
</g>
<!-- MainWindow&#45;&gt;WireGuardHandler -->
<g id="edge3" class="edge">
<title>MainWindow&#45;&gt;WireGuardHandler</title>
<path fill="none" stroke="black" d="M200.32,-198.73C287.06,-197.72 470.62,-193.02 530,-171.5 545.24,-165.98 560.12,-156.06 572.14,-146.55"/>
<polygon fill="black" stroke="black" points="574.09,-149.48 579.56,-140.4 569.63,-144.09 574.09,-149.48"/>
</g>
<!-- RealWindowsWireGuard -->
<g id="node5" class="node">
<title>RealWindowsWireGuard</title>
<path fill="none" stroke="black" d="M508.62,-139C508.62,-139 379.38,-139 379.38,-139 373.38,-139 367.38,-133 367.38,-127 367.38,-127 367.38,-115 367.38,-115 367.38,-109 373.38,-103 379.38,-103 379.38,-103 508.62,-103 508.62,-103 514.62,-103 520.62,-109 520.62,-115 520.62,-115 520.62,-127 520.62,-127 520.62,-133 514.62,-139 508.62,-139"/>
<text xml:space="preserve" text-anchor="middle" x="444" y="-115.95" font-family="Times New Roman,serif" font-size="14.00">RealWindowsWireGuard</text>
</g>
<!-- MainWindow&#45;&gt;RealWindowsWireGuard -->
<g id="edge4" class="edge">
<title>MainWindow&#45;&gt;RealWindowsWireGuard</title>
<path fill="none" stroke="black" d="M200.37,-197.95C242.72,-195.79 306.52,-189.5 359,-171.5 377.02,-165.32 395.48,-155.13 410.57,-145.59"/>
<polygon fill="black" stroke="black" points="412.23,-148.69 418.69,-140.29 408.4,-142.82 412.23,-148.69"/>
</g>
<!-- SimpleVPNHandler -->
<g id="node6" class="node">
<title>SimpleVPNHandler</title>
<path fill="none" stroke="black" d="M337.75,-139C337.75,-139 236.25,-139 236.25,-139 230.25,-139 224.25,-133 224.25,-127 224.25,-127 224.25,-115 224.25,-115 224.25,-109 230.25,-103 236.25,-103 236.25,-103 337.75,-103 337.75,-103 343.75,-103 349.75,-109 349.75,-115 349.75,-115 349.75,-127 349.75,-127 349.75,-133 343.75,-139 337.75,-139"/>
<text xml:space="preserve" text-anchor="middle" x="287" y="-115.95" font-family="Times New Roman,serif" font-size="14.00">SimpleVPNHandler</text>
</g>
<!-- MainWindow&#45;&gt;SimpleVPNHandler -->
<g id="edge5" class="edge">
<title>MainWindow&#45;&gt;SimpleVPNHandler</title>
<path fill="none" stroke="black" d="M197.73,-179.08C202.59,-176.62 207.44,-174.07 212,-171.5 225.86,-163.69 240.59,-154.24 253.28,-145.71"/>
<polygon fill="black" stroke="black" points="255,-148.77 261.3,-140.25 251.06,-142.99 255,-148.77"/>
</g>
<!-- SettingsJSON -->
<g id="node11" class="node">
<title>SettingsJSON</title>
<path fill="none" stroke="black" d="M573.75,-52C573.75,-52 514.25,-52 514.25,-52 508.25,-52 502.25,-46 502.25,-40 502.25,-40 502.25,-28 502.25,-28 502.25,-22 508.25,-16 514.25,-16 514.25,-16 573.75,-16 573.75,-16 579.75,-16 585.75,-22 585.75,-28 585.75,-28 585.75,-40 585.75,-40 585.75,-46 579.75,-52 573.75,-52"/>
<text xml:space="preserve" text-anchor="middle" x="544" y="-28.95" font-family="Times New Roman,serif" font-size="14.00">settings.json</text>
</g>
<!-- MainWindow&#45;&gt;SettingsJSON -->
<g id="edge14" class="edge">
<title>MainWindow&#45;&gt;SettingsJSON</title>
<path fill="none" stroke="black" d="M200.02,-198.25C323.67,-196.01 654.92,-188.46 671,-171.5 695.16,-146.02 694.49,-118.59 671,-92.5 659.64,-79.88 610.38,-91.7 595,-84.5 583.31,-79.03 572.66,-69.77 564.15,-60.73"/>
<polygon fill="black" stroke="black" points="566.93,-58.58 557.69,-53.39 561.67,-63.21 566.93,-58.58"/>
</g>
<!-- SpeedTest -->
<g id="node8" class="node">
<title>SpeedTest</title>
<path fill="none" stroke="black" d="M200.75,-52C200.75,-52 153.25,-52 153.25,-52 147.25,-52 141.25,-46 141.25,-40 141.25,-40 141.25,-28 141.25,-28 141.25,-22 147.25,-16 153.25,-16 153.25,-16 200.75,-16 200.75,-16 206.75,-16 212.75,-22 212.75,-28 212.75,-28 212.75,-40 212.75,-40 212.75,-46 206.75,-52 200.75,-52"/>
<text xml:space="preserve" text-anchor="middle" x="177" y="-28.95" font-family="Times New Roman,serif" font-size="14.00">SpeedTest</text>
</g>
<!-- ServerGrid&#45;&gt;SpeedTest -->
<g id="edge6" class="edge">
<title>ServerGrid&#45;&gt;SpeedTest</title>
<path fill="none" stroke="black" d="M82.84,-100.07C100.62,-87.79 123.52,-71.96 142.29,-58.99"/>
<polygon fill="black" stroke="black" points="144.2,-61.92 150.43,-53.36 140.22,-56.16 144.2,-61.92"/>
</g>
<!-- Logger -->
<g id="node7" class="node">
<title>Logger</title>
<path fill="none" stroke="black" d="M273.5,-52C273.5,-52 242.5,-52 242.5,-52 236.5,-52 230.5,-46 230.5,-40 230.5,-40 230.5,-28 230.5,-28 230.5,-22 236.5,-16 242.5,-16 242.5,-16 273.5,-16 273.5,-16 279.5,-16 285.5,-22 285.5,-28 285.5,-28 285.5,-40 285.5,-40 285.5,-46 279.5,-52 273.5,-52"/>
<text xml:space="preserve" text-anchor="middle" x="258" y="-28.95" font-family="Times New Roman,serif" font-size="14.00">Logger</text>
</g>
<!-- SettingsPanel&#45;&gt;Logger -->
<g id="edge7" class="edge">
<title>SettingsPanel&#45;&gt;Logger</title>
<path fill="none" stroke="black" d="M199.39,-100.17C207.34,-95.62 215.24,-90.37 222,-84.5 229.53,-77.97 236.38,-69.57 242.03,-61.56"/>
<polygon fill="black" stroke="black" points="244.84,-63.65 247.46,-53.38 239.01,-59.77 244.84,-63.65"/>
</g>
<!-- SettingsPanel&#45;&gt;SettingsJSON -->
<g id="edge15" class="edge">
<title>SettingsPanel&#45;&gt;SettingsJSON</title>
<path fill="none" stroke="black" d="M190.64,-100.01C197.53,-96.96 204.85,-94.24 212,-92.5 242.35,-85.11 464.22,-96.65 493,-84.5 505.06,-79.41 515.88,-70.04 524.42,-60.8"/>
<polygon fill="black" stroke="black" points="527.02,-63.15 530.89,-53.29 521.72,-58.59 527.02,-63.15"/>
</g>
<!-- WireGuardHandler&#45;&gt;Logger -->
<g id="edge8" class="edge">
<title>WireGuardHandler&#45;&gt;Logger</title>
<path fill="none" stroke="black" d="M562.13,-102.59C551.94,-98.54 540.73,-94.75 530,-92.5 504.43,-87.14 318.16,-96.6 295,-84.5 285.47,-79.52 277.72,-70.85 271.83,-62.14"/>
<polygon fill="black" stroke="black" points="274.94,-60.51 266.76,-53.78 268.96,-64.14 274.94,-60.51"/>
</g>
<!-- ServersJSON -->
<g id="node10" class="node">
<title>ServersJSON</title>
<path fill="none" stroke="black" d="M472.25,-52C472.25,-52 415.75,-52 415.75,-52 409.75,-52 403.75,-46 403.75,-40 403.75,-40 403.75,-28 403.75,-28 403.75,-22 409.75,-16 415.75,-16 415.75,-16 472.25,-16 472.25,-16 478.25,-16 484.25,-22 484.25,-28 484.25,-28 484.25,-40 484.25,-40 484.25,-46 478.25,-52 472.25,-52"/>
<text xml:space="preserve" text-anchor="middle" x="444" y="-28.95" font-family="Times New Roman,serif" font-size="14.00">servers.json</text>
</g>
<!-- WireGuardHandler&#45;&gt;ServersJSON -->
<g id="edge11" class="edge">
<title>WireGuardHandler&#45;&gt;ServersJSON</title>
<path fill="none" stroke="black" d="M558.54,-102.57C549.26,-98.95 539.37,-95.36 530,-92.5 513.91,-87.59 507.75,-92.59 493,-84.5 482.19,-78.57 472.21,-69.51 464.12,-60.75"/>
<polygon fill="black" stroke="black" points="466.9,-58.61 457.7,-53.36 461.62,-63.2 466.9,-58.61"/>
</g>
<!-- ConfigFiles -->
<g id="node12" class="node">
<title>ConfigFiles</title>
<path fill="none" stroke="black" d="M700.12,-52C700.12,-52 615.88,-52 615.88,-52 609.88,-52 603.88,-46 603.88,-40 603.88,-40 603.88,-28 603.88,-28 603.88,-22 609.88,-16 615.88,-16 615.88,-16 700.12,-16 700.12,-16 706.12,-16 712.12,-22 712.12,-28 712.12,-28 712.12,-40 712.12,-40 712.12,-46 706.12,-52 700.12,-52"/>
<text xml:space="preserve" text-anchor="middle" x="658" y="-28.95" font-family="Times New Roman,serif" font-size="14.00">WireGuard .conf</text>
</g>
<!-- WireGuardHandler&#45;&gt;ConfigFiles -->
<g id="edge16" class="edge">
<title>WireGuardHandler&#45;&gt;ConfigFiles</title>
<path fill="none" stroke="black" d="M610.94,-102.8C619.12,-91.01 630.14,-75.14 639.46,-61.72"/>
<polygon fill="black" stroke="black" points="642.19,-63.92 645.01,-53.71 636.44,-59.93 642.19,-63.92"/>
</g>
<!-- RealWindowsWireGuard&#45;&gt;Logger -->
<g id="edge9" class="edge">
<title>RealWindowsWireGuard&#45;&gt;Logger</title>
<path fill="none" stroke="black" d="M395.44,-102.55C383.63,-98.79 370.96,-95.16 359,-92.5 331.02,-86.28 319.78,-98.91 295,-84.5 285.7,-79.09 278.01,-70.33 272.09,-61.67"/>
<polygon fill="black" stroke="black" points="275.22,-60.06 266.97,-53.4 269.26,-63.74 275.22,-60.06"/>
</g>
<!-- RealWindowsWireGuard&#45;&gt;ServersJSON -->
<g id="edge12" class="edge">
<title>RealWindowsWireGuard&#45;&gt;ServersJSON</title>
<path fill="none" stroke="black" d="M444,-102.8C444,-91.58 444,-76.67 444,-63.69"/>
<polygon fill="black" stroke="black" points="447.5,-63.98 444,-53.98 440.5,-63.98 447.5,-63.98"/>
</g>
<!-- SimpleVPNHandler&#45;&gt;Logger -->
<g id="edge10" class="edge">
<title>SimpleVPNHandler&#45;&gt;Logger</title>
<path fill="none" stroke="black" d="M281.13,-102.8C277.27,-91.47 272.11,-76.36 267.65,-63.29"/>
<polygon fill="black" stroke="black" points="270.99,-62.23 264.45,-53.9 264.36,-64.49 270.99,-62.23"/>
</g>
<!-- SimpleVPNHandler&#45;&gt;ServersJSON -->
<g id="edge13" class="edge">
<title>SimpleVPNHandler&#45;&gt;ServersJSON</title>
<path fill="none" stroke="black" d="M329.09,-102.6C338.51,-99.01 348.53,-95.43 358,-92.5 372.83,-87.91 378.35,-91.89 392,-84.5 403.3,-78.39 413.93,-69.17 422.6,-60.35"/>
<polygon fill="black" stroke="black" points="424.98,-62.93 429.23,-53.22 419.85,-58.15 424.98,-62.93"/>
</g>
<!-- Encryption -->
<g id="node9" class="node">
<title>Encryption</title>
<path fill="none" stroke="black" d="M368,-52C368,-52 316,-52 316,-52 310,-52 304,-46 304,-40 304,-40 304,-28 304,-28 304,-22 310,-16 316,-16 316,-16 368,-16 368,-16 374,-16 380,-22 380,-28 380,-28 380,-40 380,-40 380,-46 374,-52 368,-52"/>
<text xml:space="preserve" text-anchor="middle" x="342" y="-28.95" font-family="Times New Roman,serif" font-size="14.00">Encryption</text>
</g>
</g>
</svg>
