<?xml version="1.0" encoding="UTF-8" standalone="no"?>
<!DOCTYPE svg PUBLIC "-//W3C//DTD SVG 1.1//EN"
 "http://www.w3.org/Graphics/SVG/1.1/DTD/svg11.dtd">
<!-- Generated by graphviz version 14.1.3 (20260303.0454)
 -->
<!-- Title: startup Pages: 1 -->
<svg width="381pt" height="675pt"
 viewBox="0.00 0.00 381.00 675.00" xmlns="http://www.w3.org/2000/svg" xmlns:xlink="http://www.w3.org/1999/xlink">
<g id="graph0" class="graph" transform="scale(1 1) rotate(0) translate(4 670.5)">
<title>startup</title>
<polygon fill="white" stroke="none" points="-4,4 -4,-670.5 377.12,-670.5 377.12,4 -4,4"/>
<!-- Start -->
<g id="node1" class="node">
<title>Start</title>
<ellipse fill="none" stroke="black" cx="207.25" cy="-648.5" rx="74.38" ry="18"/>
<text xml:space="preserve" text-anchor="middle" x="207.25" y="-643.45" font-family="Times New Roman,serif" font-size="14.00">Application Start</text>
</g>
<!-- CheckArgs -->
<g id="node2" class="node">
<title>CheckArgs</title>
<path fill="none" stroke="black" d="M252.38,-593.5C252.38,-593.5 162.12,-593.5 162.12,-593.5 156.12,-593.5 150.12,-587.5 150.12,-581.5 150.12,-581.5 150.12,-569.5 150.12,-569.5 150.12,-563.5 156.12,-557.5 162.12,-557.5 162.12,-557.5 252.38,-557.5 252.38,-557.5 258.38,-557.5 264.38,-563.5 264.38,-569.5 264.38,-569.5 264.38,-581.5 264.38,-581.5 264.38,-587.5 258.38,-593.5 252.38,-593.5"/>
<text xml:space="preserve" text-anchor="middle" x="207.25" y="-570.45" font-family="Times New Roman,serif" font-size="14.00">Check Arguments</text>
</g>
<!-- Start&#45;&gt;CheckArgs -->
<g id="edge1" class="edge">
<title>Start&#45;&gt;CheckArgs</title>
<path fill="none" stroke="black" d="M207.25,-630.31C207.25,-622.73 207.25,-613.6 207.25,-605.04"/>
<polygon fill="black" stroke="black" points="210.75,-605.04 207.25,-595.04 203.75,-605.04 210.75,-605.04"/>
</g>
<!-- GUI -->
<g id="node3" class="node">
<title>GUI</title>
<path fill="none" stroke="black" d="M133.25,-505C133.25,-505 81.25,-505 81.25,-505 75.25,-505 69.25,-499 69.25,-493 69.25,-493 69.25,-481 69.25,-481 69.25,-475 75.25,-469 81.25,-469 81.25,-469 133.25,-469 133.25,-469 139.25,-469 145.25,-475 145.25,-481 145.25,-481 145.25,-493 145.25,-493 145.25,-499 139.25,-505 133.25,-505"/>
<text xml:space="preserve" text-anchor="middle" x="107.25" y="-481.95" font-family="Times New Roman,serif" font-size="14.00">GUI Mode</text>
</g>
<!-- CheckArgs&#45;&gt;GUI -->
<g id="edge2" class="edge">
<title>CheckArgs&#45;&gt;GUI</title>
<path fill="none" stroke="black" d="M187.49,-557.41C172.66,-544.58 152.14,-526.83 135.57,-512.49"/>
<polygon fill="black" stroke="black" points="138.31,-510.24 128.45,-506.34 133.73,-515.53 138.31,-510.24"/>
<text xml:space="preserve" text-anchor="middle" x="179.33" y="-526.2" font-family="Times New Roman,serif" font-size="14.00">&#45;&#45;gui</text>
</g>
<!-- Server -->
<g id="node4" class="node">
<title>Server</title>
<path fill="none" stroke="black" d="M238.88,-505C238.88,-505 175.62,-505 175.62,-505 169.62,-505 163.62,-499 163.62,-493 163.62,-493 163.62,-481 163.62,-481 163.62,-475 169.62,-469 175.62,-469 175.62,-469 238.88,-469 238.88,-469 244.88,-469 250.88,-475 250.88,-481 250.88,-481 250.88,-493 250.88,-493 250.88,-499 244.88,-505 238.88,-505"/>
<text xml:space="preserve" text-anchor="middle" x="207.25" y="-481.95" font-family="Times New Roman,serif" font-size="14.00">Server Mode</text>
</g>
<!-- CheckArgs&#45;&gt;Server -->
<g id="edge3" class="edge">
<title>CheckArgs&#45;&gt;Server</title>
<path fill="none" stroke="black" d="M207.25,-557.41C207.25,-545.76 207.25,-530.05 207.25,-516.52"/>
<polygon fill="black" stroke="black" points="210.75,-516.86 207.25,-506.86 203.75,-516.86 210.75,-516.86"/>
<text xml:space="preserve" text-anchor="middle" x="228.25" y="-526.2" font-family="Times New Roman,serif" font-size="14.00">&#45;&#45;server</text>
</g>
<!-- Speedtest -->
<g id="node5" class="node">
<title>Speedtest</title>
<path fill="none" stroke="black" d="M361.12,-505C361.12,-505 281.38,-505 281.38,-505 275.38,-505 269.38,-499 269.38,-493 269.38,-493 269.38,-481 269.38,-481 269.38,-475 275.38,-469 281.38,-469 281.38,-469 361.12,-469 361.12,-469 367.12,-469 373.12,-475 373.12,-481 373.12,-481 373.12,-493 373.12,-493 373.12,-499 367.12,-505 361.12,-505"/>
<text xml:space="preserve" text-anchor="middle" x="321.25" y="-481.95" font-family="Times New Roman,serif" font-size="14.00">Speedtest Mode</text>
</g>
<!-- CheckArgs&#45;&gt;Speedtest -->
<g id="edge4" class="edge">
<title>CheckArgs&#45;&gt;Speedtest</title>
<path fill="none" stroke="black" d="M230.05,-557.2C247.05,-544.3 270.51,-526.5 289.38,-512.18"/>
<polygon fill="black" stroke="black" points="291.44,-515.01 297.29,-506.18 287.21,-509.44 291.44,-515.01"/>
<text xml:space="preserve" text-anchor="middle" x="303.71" y="-526.2" font-family="Times New Roman,serif" font-size="14.00">&#45;&#45;speedtest</text>
</g>
<!-- LoadServers -->
<g id="node6" class="node">
<title>LoadServers</title>
<path fill="none" stroke="black" d="M251.25,-432C251.25,-432 163.25,-432 163.25,-432 157.25,-432 151.25,-426 151.25,-420 151.25,-420 151.25,-408 151.25,-408 151.25,-402 157.25,-396 163.25,-396 163.25,-396 251.25,-396 251.25,-396 257.25,-396 263.25,-402 263.25,-408 263.25,-408 263.25,-420 263.25,-420 263.25,-426 257.25,-432 251.25,-432"/>
<text xml:space="preserve" text-anchor="middle" x="207.25" y="-408.95" font-family="Times New Roman,serif" font-size="14.00">Load servers.json</text>
</g>
<!-- GUI&#45;&gt;LoadServers -->
<g id="edge5" class="edge">
<title>GUI&#45;&gt;LoadServers</title>
<path fill="none" stroke="black" d="M131.71,-468.63C144.3,-459.69 159.85,-448.66 173.56,-438.92"/>
<polygon fill="black" stroke="black" points="175.33,-441.95 181.46,-433.31 171.28,-436.25 175.33,-441.95"/>
</g>
<!-- Server&#45;&gt;LoadServers -->
<g id="edge6" class="edge">
<title>Server&#45;&gt;LoadServers</title>
<path fill="none" stroke="black" d="M207.25,-468.81C207.25,-461.23 207.25,-452.1 207.25,-443.54"/>
<polygon fill="black" stroke="black" points="210.75,-443.54 207.25,-433.54 203.75,-443.54 210.75,-443.54"/>
</g>
<!-- Speedtest&#45;&gt;LoadServers -->
<g id="edge7" class="edge">
<title>Speedtest&#45;&gt;LoadServers</title>
<path fill="none" stroke="black" d="M293.36,-468.63C278.73,-459.52 260.61,-448.23 244.76,-438.36"/>
<polygon fill="black" stroke="black" points="246.87,-435.55 236.53,-433.24 243.17,-441.49 246.87,-435.55"/>
</g>
<!-- LoadSettings -->
<g id="node7" class="node">
<title>LoadSettings</title>
<path fill="none" stroke="black" d="M252.75,-359C252.75,-359 161.75,-359 161.75,-359 155.75,-359 149.75,-353 149.75,-347 149.75,-347 149.75,-335 149.75,-335 149.75,-329 155.75,-323 161.75,-323 161.75,-323 252.75,-323 252.75,-323 258.75,-323 264.75,-329 264.75,-335 264.75,-335 264.75,-347 264.75,-347 264.75,-353 258.75,-359 252.75,-359"/>
<text xml:space="preserve" text-anchor="middle" x="207.25" y="-335.95" font-family="Times New Roman,serif" font-size="14.00">Load settings.json</text>
</g>
<!-- LoadServers&#45;&gt;LoadSettings -->
<g id="edge8" class="edge">
<title>LoadServers&#45;&gt;LoadSettings</title>
<path fill="none" stroke="black" d="M207.25,-395.81C207.25,-388.23 207.25,-379.1 207.25,-370.54"/>
<polygon fill="black" stroke="black" points="210.75,-370.54 207.25,-360.54 203.75,-370.54 210.75,-370.54"/>
</g>
<!-- TestWG -->
<g id="node8" class="node">
<title>TestWG</title>
<path fill="none" stroke="black" d="M246.38,-286C246.38,-286 168.12,-286 168.12,-286 162.12,-286 156.12,-280 156.12,-274 156.12,-274 156.12,-262 156.12,-262 156.12,-256 162.12,-250 168.12,-250 168.12,-250 246.38,-250 246.38,-250 252.38,-250 258.38,-256 258.38,-262 258.38,-262 258.38,-274 258.38,-274 258.38,-280 252.38,-286 246.38,-286"/>
<text xml:space="preserve" text-anchor="middle" x="207.25" y="-262.95" font-family="Times New Roman,serif" font-size="14.00">Test WireGuard</text>
</g>
<!-- LoadSettings&#45;&gt;TestWG -->
<g id="edge9" class="edge">
<title>LoadSettings&#45;&gt;TestWG</title>
<path fill="none" stroke="black" d="M207.25,-322.81C207.25,-315.23 207.25,-306.1 207.25,-297.54"/>
<polygon fill="black" stroke="black" points="210.75,-297.54 207.25,-287.54 203.75,-297.54 210.75,-297.54"/>
</g>
<!-- SelectHandler -->
<g id="node9" class="node">
<title>SelectHandler</title>
<path fill="none" stroke="black" d="M243.38,-213C243.38,-213 171.12,-213 171.12,-213 165.12,-213 159.12,-207 159.12,-201 159.12,-201 159.12,-189 159.12,-189 159.12,-183 165.12,-177 171.12,-177 171.12,-177 243.38,-177 243.38,-177 249.38,-177 255.38,-183 255.38,-189 255.38,-189 255.38,-201 255.38,-201 255.38,-207 249.38,-213 243.38,-213"/>
<text xml:space="preserve" text-anchor="middle" x="207.25" y="-189.95" font-family="Times New Roman,serif" font-size="14.00">Select Handler</text>
</g>
<!-- TestWG&#45;&gt;SelectHandler -->
<g id="edge10" class="edge">
<title>TestWG&#45;&gt;SelectHandler</title>
<path fill="none" stroke="black" d="M207.25,-249.81C207.25,-242.23 207.25,-233.1 207.25,-224.54"/>
<polygon fill="black" stroke="black" points="210.75,-224.54 207.25,-214.54 203.75,-224.54 210.75,-224.54"/>
</g>
<!-- UseReal -->
<g id="node10" class="node">
<title>UseReal</title>
<path fill="none" stroke="black" d="M192.62,-124.5C192.62,-124.5 103.88,-124.5 103.88,-124.5 97.88,-124.5 91.88,-118.5 91.88,-112.5 91.88,-112.5 91.88,-100.5 91.88,-100.5 91.88,-94.5 97.88,-88.5 103.88,-88.5 103.88,-88.5 192.62,-88.5 192.62,-88.5 198.62,-88.5 204.62,-94.5 204.62,-100.5 204.62,-100.5 204.62,-112.5 204.62,-112.5 204.62,-118.5 198.62,-124.5 192.62,-124.5"/>
<text xml:space="preserve" text-anchor="middle" x="148.25" y="-101.45" font-family="Times New Roman,serif" font-size="14.00">Use Real Handler</text>
</g>
<!-- SelectHandler&#45;&gt;UseReal -->
<g id="edge11" class="edge">
<title>SelectHandler&#45;&gt;UseReal</title>
<path fill="none" stroke="black" d="M195.59,-176.91C187.24,-164.67 175.84,-147.95 166.32,-133.99"/>
<polygon fill="black" stroke="black" points="169.46,-132.39 160.94,-126.1 163.68,-136.33 169.46,-132.39"/>
<text xml:space="preserve" text-anchor="middle" x="204.41" y="-145.7" font-family="Times New Roman,serif" font-size="14.00">Success</text>
</g>
<!-- UseFallback -->
<g id="node11" class="node">
<title>UseFallback</title>
<path fill="none" stroke="black" d="M298.88,-124.5C298.88,-124.5 235.62,-124.5 235.62,-124.5 229.62,-124.5 223.62,-118.5 223.62,-112.5 223.62,-112.5 223.62,-100.5 223.62,-100.5 223.62,-94.5 229.62,-88.5 235.62,-88.5 235.62,-88.5 298.88,-88.5 298.88,-88.5 304.88,-88.5 310.88,-94.5 310.88,-100.5 310.88,-100.5 310.88,-112.5 310.88,-112.5 310.88,-118.5 304.88,-124.5 298.88,-124.5"/>
<text xml:space="preserve" text-anchor="middle" x="267.25" y="-101.45" font-family="Times New Roman,serif" font-size="14.00">Use Fallback</text>
</g>
<!-- SelectHandler&#45;&gt;UseFallback -->
<g id="edge12" class="edge">
<title>SelectHandler&#45;&gt;UseFallback</title>
<path fill="none" stroke="black" d="M219.1,-176.91C227.6,-164.67 239.19,-147.95 248.88,-133.99"/>
<polygon fill="black" stroke="black" points="251.53,-136.31 254.35,-126.09 245.78,-132.32 251.53,-136.31"/>
<text xml:space="preserve" text-anchor="middle" x="253.12" y="-145.7" font-family="Times New Roman,serif" font-size="14.00">Fail</text>
</g>
<!-- ShowWindow -->
<g id="node12" class="node">
<title>ShowWindow</title>
<path fill="none" stroke="black" d="M327.88,-36C327.88,-36 222.62,-36 222.62,-36 216.62,-36 210.62,-30 210.62,-24 210.62,-24 210.62,-12 210.62,-12 210.62,-6 216.62,0 222.62,0 222.62,0 327.88,0 327.88,0 333.88,0 339.88,-6 339.88,-12 339.88,-12 339.88,-24 339.88,-24 339.88,-30 333.88,-36 327.88,-36"/>
<text xml:space="preserve" text-anchor="middle" x="275.25" y="-12.95" font-family="Times New Roman,serif" font-size="14.00">Show Main Window</text>
</g>
<!-- UseReal&#45;&gt;ShowWindow -->
<g id="edge13" class="edge">
<title>UseReal&#45;&gt;ShowWindow</title>
<path fill="none" stroke="black" d="M176.14,-88.16C184.88,-82.62 194.53,-76.39 203.25,-70.5 216.11,-61.81 230.04,-51.97 242.18,-43.22"/>
<polygon fill="black" stroke="black" points="244.2,-46.08 250.25,-37.38 240.1,-40.41 244.2,-46.08"/>
<text xml:space="preserve" text-anchor="middle" x="237.26" y="-57.2" font-family="Times New Roman,serif" font-size="14.00">GUI</text>
</g>
<!-- StartServer -->
<g id="node13" class="node">
<title>StartServer</title>
<path fill="none" stroke="black" d="M68.5,-36C68.5,-36 12,-36 12,-36 6,-36 0,-30 0,-24 0,-24 0,-12 0,-12 0,-6 6,0 12,0 12,0 68.5,0 68.5,0 74.5,0 80.5,-6 80.5,-12 80.5,-12 80.5,-24 80.5,-24 80.5,-30 74.5,-36 68.5,-36"/>
<text xml:space="preserve" text-anchor="middle" x="40.25" y="-12.95" font-family="Times New Roman,serif" font-size="14.00">Start Server</text>
</g>
<!-- UseReal&#45;&gt;StartServer -->
<g id="edge15" class="edge">
<title>UseReal&#45;&gt;StartServer</title>
<path fill="none" stroke="black" d="M126.65,-88.2C110.61,-75.36 88.52,-57.66 70.69,-43.38"/>
<polygon fill="black" stroke="black" points="72.98,-40.73 62.99,-37.21 68.61,-46.2 72.98,-40.73"/>
<text xml:space="preserve" text-anchor="middle" x="121.55" y="-57.2" font-family="Times New Roman,serif" font-size="14.00">Server</text>
</g>
<!-- RunSpeedtest -->
<g id="node14" class="node">
<title>RunSpeedtest</title>
<path fill="none" stroke="black" d="M180.25,-36C180.25,-36 110.25,-36 110.25,-36 104.25,-36 98.25,-30 98.25,-24 98.25,-24 98.25,-12 98.25,-12 98.25,-6 104.25,0 110.25,0 110.25,0 180.25,0 180.25,0 186.25,0 192.25,-6 192.25,-12 192.25,-12 192.25,-24 192.25,-24 192.25,-30 186.25,-36 180.25,-36"/>
<text xml:space="preserve" text-anchor="middle" x="145.25" y="-12.95" font-family="Times New Roman,serif" font-size="14.00">Run Speedtest</text>
</g>
<!-- UseReal&#45;&gt;RunSpeedtest -->
<g id="edge16" class="edge">
<title>UseReal&#45;&gt;RunSpeedtest</title>
<path fill="none" stroke="black" d="M147.66,-88.41C147.25,-76.76 146.71,-61.05 146.24,-47.52"/>
<polygon fill="black" stroke="black" points="149.75,-47.74 145.9,-37.86 142.75,-47.98 149.75,-47.74"/>
<text xml:space="preserve" text-anchor="middle" x="172.89" y="-57.2" font-family="Times New Roman,serif" font-size="14.00">Speedtest</text>
</g>
<!-- UseFallback&#45;&gt;ShowWindow -->
<g id="edge14" class="edge">
<title>UseFallback&#45;&gt;ShowWindow</title>
<path fill="none" stroke="black" d="M268.83,-88.41C269.91,-76.76 271.36,-61.05 272.61,-47.52"/>
<polygon fill="black" stroke="black" points="276.07,-48.14 273.51,-37.86 269.1,-47.49 276.07,-48.14"/>
</g>
</g>
</svg>
