<?xml version="1.0" encoding="UTF-8" standalone="no"?>
<!DOCTYPE svg PUBLIC "-//W3C//DTD SVG 1.1//EN"
 "http://www.w3.org/Graphics/SVG/1.1/DTD/svg11.dtd">
<!-- Generated by graphviz version 14.1.3 (20260303.0454)
 -->
<!-- Title: connection_sequence Pages: 1 -->
<svg width="1658pt" height="137pt"
 viewBox="0.00 0.00 1658.00 137.00" xmlns="http://www.w3.org/2000/svg" xmlns:xlink="http://www.w3.org/1999/xlink">
<g id="graph0" class="graph" transform="scale(1 1) rotate(0) translate(4 133)">
<title>connection_sequence</title>
<polygon fill="white" stroke="none" points="-4,4 -4,-133 1654.25,-133 1654.25,4 -4,4"/>
<g id="clust1" class="cluster">
<title>cluster_phases</title>
<polygon fill="none" stroke="black" points="13,-8 13,-85 1642.25,-85 1642.25,-8 13,-8"/>
<text xml:space="preserve" text-anchor="middle" x="827.62" y="-67.7" font-family="Times New Roman,serif" font-size="14.00">Connection Phases</text>
</g>
<!-- P1 -->
<g id="node1" class="node">
<title>P1</title>
<path fill="none" stroke="black" d="M97.75,-52C97.75,-52 33,-52 33,-52 27,-52 21,-46 21,-40 21,-40 21,-28 21,-28 21,-22 27,-16 33,-16 33,-16 97.75,-16 97.75,-16 103.75,-16 109.75,-22 109.75,-28 109.75,-28 109.75,-40 109.75,-40 109.75,-46 103.75,-52 97.75,-52"/>
<text xml:space="preserve" text-anchor="middle" x="65.38" y="-28.95" font-family="Times New Roman,serif" font-size="14.00">1. User Click</text>
</g>
<!-- P2 -->
<g id="node2" class="node">
<title>P2</title>
<path fill="none" stroke="black" d="M257,-52C257,-52 178.75,-52 178.75,-52 172.75,-52 166.75,-46 166.75,-40 166.75,-40 166.75,-28 166.75,-28 166.75,-22 172.75,-16 178.75,-16 178.75,-16 257,-16 257,-16 263,-16 269,-22 269,-28 269,-28 269,-40 269,-40 269,-46 263,-52 257,-52"/>
<text xml:space="preserve" text-anchor="middle" x="217.88" y="-28.95" font-family="Times New Roman,serif" font-size="14.00">2. Server Select</text>
</g>
<!-- P1&#45;&gt;P2 -->
<g id="edge1" class="edge">
<title>P1&#45;&gt;P2</title>
<path fill="none" stroke="black" d="M109.91,-34C123.95,-34 139.8,-34 154.91,-34"/>
<polygon fill="black" stroke="black" points="154.76,-37.5 164.76,-34 154.76,-30.5 154.76,-37.5"/>
</g>
<!-- P3 -->
<g id="node3" class="node">
<title>P3</title>
<path fill="none" stroke="black" d="M384,-52C384,-52 317,-52 317,-52 311,-52 305,-46 305,-40 305,-40 305,-28 305,-28 305,-22 311,-16 317,-16 317,-16 384,-16 384,-16 390,-16 396,-22 396,-28 396,-28 396,-40 396,-40 396,-46 390,-52 384,-52"/>
<text xml:space="preserve" text-anchor="middle" x="350.5" y="-28.95" font-family="Times New Roman,serif" font-size="14.00">3. WG Check</text>
</g>
<!-- P2&#45;&gt;P3 -->
<g id="edge2" class="edge">
<title>P2&#45;&gt;P3</title>
<path fill="none" stroke="black" d="M269.38,-34C277.19,-34 285.3,-34 293.24,-34"/>
<polygon fill="black" stroke="black" points="293.16,-37.5 303.16,-34 293.16,-30.5 293.16,-37.5"/>
</g>
<!-- P4 -->
<g id="node4" class="node">
<title>P4</title>
<path fill="none" stroke="black" d="M499,-52C499,-52 444,-52 444,-52 438,-52 432,-46 432,-40 432,-40 432,-28 432,-28 432,-22 438,-16 444,-16 444,-16 499,-16 499,-16 505,-16 511,-22 511,-28 511,-28 511,-40 511,-40 511,-46 505,-52 499,-52"/>
<text xml:space="preserve" text-anchor="middle" x="471.5" y="-28.95" font-family="Times New Roman,serif" font-size="14.00">4. Key Gen</text>
</g>
<!-- P3&#45;&gt;P4 -->
<g id="edge3" class="edge">
<title>P3&#45;&gt;P4</title>
<path fill="none" stroke="black" d="M396.49,-34C404.27,-34 412.41,-34 420.32,-34"/>
<polygon fill="black" stroke="black" points="420.17,-37.5 430.17,-34 420.17,-30.5 420.17,-37.5"/>
</g>
<!-- P5 -->
<g id="node5" class="node">
<title>P5</title>
<path fill="none" stroke="black" d="M641.75,-52C641.75,-52 559,-52 559,-52 553,-52 547,-46 547,-40 547,-40 547,-28 547,-28 547,-22 553,-16 559,-16 559,-16 641.75,-16 641.75,-16 647.75,-16 653.75,-22 653.75,-28 653.75,-28 653.75,-40 653.75,-40 653.75,-46 647.75,-52 641.75,-52"/>
<text xml:space="preserve" text-anchor="middle" x="600.38" y="-28.95" font-family="Times New Roman,serif" font-size="14.00">5. Config Create</text>
</g>
<!-- P4&#45;&gt;P5 -->
<g id="edge4" class="edge">
<title>P4&#45;&gt;P5</title>
<path fill="none" stroke="black" d="M511.26,-34C518.97,-34 527.26,-34 535.57,-34"/>
<polygon fill="black" stroke="black" points="535.32,-37.5 545.32,-34 535.32,-30.5 535.32,-37.5"/>
</g>
<!-- P6 -->
<g id="node6" class="node">
<title>P6</title>
<path fill="none" stroke="black" d="M775.5,-52C775.5,-52 701.75,-52 701.75,-52 695.75,-52 689.75,-46 689.75,-40 689.75,-40 689.75,-28 689.75,-28 689.75,-22 695.75,-16 701.75,-16 701.75,-16 775.5,-16 775.5,-16 781.5,-16 787.5,-22 787.5,-28 787.5,-28 787.5,-40 787.5,-40 787.5,-46 781.5,-52 775.5,-52"/>
<text xml:space="preserve" text-anchor="middle" x="738.62" y="-28.95" font-family="Times New Roman,serif" font-size="14.00">6. Save Config</text>
</g>
<!-- P5&#45;&gt;P6 -->
<g id="edge5" class="edge">
<title>P5&#45;&gt;P6</title>
<path fill="none" stroke="black" d="M654.05,-34C661.99,-34 670.23,-34 678.3,-34"/>
<polygon fill="black" stroke="black" points="678.03,-37.5 688.03,-34 678.03,-30.5 678.03,-37.5"/>
</g>
<!-- P7 -->
<g id="node7" class="node">
<title>P7</title>
<path fill="none" stroke="black" d="M908.5,-52C908.5,-52 835.5,-52 835.5,-52 829.5,-52 823.5,-46 823.5,-40 823.5,-40 823.5,-28 823.5,-28 823.5,-22 829.5,-16 835.5,-16 835.5,-16 908.5,-16 908.5,-16 914.5,-16 920.5,-22 920.5,-28 920.5,-28 920.5,-40 920.5,-40 920.5,-46 914.5,-52 908.5,-52"/>
<text xml:space="preserve" text-anchor="middle" x="872" y="-28.95" font-family="Times New Roman,serif" font-size="14.00">7. Thread Start</text>
</g>
<!-- P6&#45;&gt;P7 -->
<g id="edge6" class="edge">
<title>P6&#45;&gt;P7</title>
<path fill="none" stroke="black" d="M787.8,-34C795.66,-34 803.89,-34 811.98,-34"/>
<polygon fill="black" stroke="black" points="811.76,-37.5 821.76,-34 811.76,-30.5 811.76,-37.5"/>
</g>
<!-- P8 -->
<g id="node8" class="node">
<title>P8</title>
<path fill="none" stroke="black" d="M1073,-52C1073,-52 968.5,-52 968.5,-52 962.5,-52 956.5,-46 956.5,-40 956.5,-40 956.5,-28 956.5,-28 956.5,-22 962.5,-16 968.5,-16 968.5,-16 1073,-16 1073,-16 1079,-16 1085,-22 1085,-28 1085,-28 1085,-40 1085,-40 1085,-46 1079,-52 1073,-52"/>
<text xml:space="preserve" text-anchor="middle" x="1020.75" y="-28.95" font-family="Times New Roman,serif" font-size="14.00">8. Execute wg&#45;quick</text>
</g>
<!-- P7&#45;&gt;P8 -->
<g id="edge7" class="edge">
<title>P7&#45;&gt;P8</title>
<path fill="none" stroke="black" d="M920.65,-34C928.32,-34 936.43,-34 944.57,-34"/>
<polygon fill="black" stroke="black" points="944.55,-37.5 954.55,-34 944.55,-30.5 944.55,-37.5"/>
</g>
<!-- P9 -->
<g id="node9" class="node">
<title>P9</title>
<path fill="none" stroke="black" d="M1211.25,-52C1211.25,-52 1133,-52 1133,-52 1127,-52 1121,-46 1121,-40 1121,-40 1121,-28 1121,-28 1121,-22 1127,-16 1133,-16 1133,-16 1211.25,-16 1211.25,-16 1217.25,-16 1223.25,-22 1223.25,-28 1223.25,-28 1223.25,-40 1223.25,-40 1223.25,-46 1217.25,-52 1211.25,-52"/>
<text xml:space="preserve" text-anchor="middle" x="1172.12" y="-28.95" font-family="Times New Roman,serif" font-size="14.00">9. Tunnel Setup</text>
</g>
<!-- P8&#45;&gt;P9 -->
<g id="edge8" class="edge">
<title>P8&#45;&gt;P9</title>
<path fill="none" stroke="black" d="M1085.1,-34C1093.21,-34 1101.49,-34 1109.57,-34"/>
<polygon fill="black" stroke="black" points="1109.3,-37.5 1119.3,-34 1109.3,-30.5 1109.3,-37.5"/>
</g>
<!-- P10 -->
<g id="node10" class="node">
<title>P10</title>
<path fill="none" stroke="black" d="M1354,-52C1354,-52 1271.25,-52 1271.25,-52 1265.25,-52 1259.25,-46 1259.25,-40 1259.25,-40 1259.25,-28 1259.25,-28 1259.25,-22 1265.25,-16 1271.25,-16 1271.25,-16 1354,-16 1354,-16 1360,-16 1366,-22 1366,-28 1366,-28 1366,-40 1366,-40 1366,-46 1360,-52 1354,-52"/>
<text xml:space="preserve" text-anchor="middle" x="1312.62" y="-28.95" font-family="Times New Roman,serif" font-size="14.00">10. State Update</text>
</g>
<!-- P9&#45;&gt;P10 -->
<g id="edge9" class="edge">
<title>P9&#45;&gt;P10</title>
<path fill="none" stroke="black" d="M1223.52,-34C1231.4,-34 1239.64,-34 1247.78,-34"/>
<polygon fill="black" stroke="black" points="1247.66,-37.5 1257.66,-34 1247.66,-30.5 1247.66,-37.5"/>
</g>
<!-- P11 -->
<g id="node11" class="node">
<title>P11</title>
<path fill="none" stroke="black" d="M1487,-52C1487,-52 1414,-52 1414,-52 1408,-52 1402,-46 1402,-40 1402,-40 1402,-28 1402,-28 1402,-22 1408,-16 1414,-16 1414,-16 1487,-16 1487,-16 1493,-16 1499,-22 1499,-28 1499,-28 1499,-40 1499,-40 1499,-46 1493,-52 1487,-52"/>
<text xml:space="preserve" text-anchor="middle" x="1450.5" y="-28.95" font-family="Times New Roman,serif" font-size="14.00">11. UI Refresh</text>
</g>
<!-- P10&#45;&gt;P11 -->
<g id="edge10" class="edge">
<title>P10&#45;&gt;P11</title>
<path fill="none" stroke="black" d="M1366.16,-34C1373.99,-34 1382.1,-34 1390.06,-34"/>
<polygon fill="black" stroke="black" points="1390.04,-37.5 1400.04,-34 1390.04,-30.5 1390.04,-37.5"/>
</g>
<!-- P12 -->
<g id="node12" class="node">
<title>P12</title>
<path fill="none" stroke="black" d="M1622.25,-52C1622.25,-52 1547,-52 1547,-52 1541,-52 1535,-46 1535,-40 1535,-40 1535,-28 1535,-28 1535,-22 1541,-16 1547,-16 1547,-16 1622.25,-16 1622.25,-16 1628.25,-16 1634.25,-22 1634.25,-28 1634.25,-28 1634.25,-40 1634.25,-40 1634.25,-46 1628.25,-52 1622.25,-52"/>
<text xml:space="preserve" text-anchor="middle" x="1584.62" y="-28.95" font-family="Times New Roman,serif" font-size="14.00">12. Connected!</text>
</g>
<!-- P11&#45;&gt;P12 -->
<g id="edge11" class="edge">
<title>P11&#45;&gt;P12</title>
<path fill="none" stroke="black" d="M1499.2,-34C1507.04,-34 1515.25,-34 1523.35,-34"/>
<polygon fill="black" stroke="black" points="1523.15,-37.5 1533.15,-34 1523.15,-30.5 1523.15,-37.5"/>
</g>
<!-- Time -->
<g id="node13" class="node">
<title>Time</title>
<path fill="none" stroke="black" d="M118.75,-129C118.75,-129 12,-129 12,-129 6,-129 0,-123 0,-117 0,-117 0,-105 0,-105 0,-99 6,-93 12,-93 12,-93 118.75,-93 118.75,-93 124.75,-93 130.75,-99 130.75,-105 130.75,-105 130.75,-117 130.75,-117 130.75,-123 124.75,-129 118.75,-129"/>
<text xml:space="preserve" text-anchor="middle" x="65.38" y="-105.95" font-family="Times New Roman,serif" font-size="14.00">Time: 10&#45;30 seconds</text>
</g>
</g>
</svg>
