<?xml version="1.0" encoding="UTF-8" standalone="no"?>
<!DOCTYPE svg PUBLIC "-//W3C//DTD SVG 1.1//EN"
 "http://www.w3.org/Graphics/SVG/1.1/DTD/svg11.dtd">
<!-- Generated by graphviz version 14.1.3 (20260303.0454)
 -->
<!-- Title: dependencies Pages: 1 -->
<svg width="869pt" height="260pt"
 viewBox="0.00 0.00 869.00 260.00" xmlns="http://www.w3.org/2000/svg" xmlns:xlink="http://www.w3.org/1999/xlink">
<g id="graph0" class="graph" transform="scale(1 1) rotate(0) translate(4 256)">
<title>dependencies</title>
<polygon fill="white" stroke="none" points="-4,4 -4,-256 864.75,-256 864.75,4 -4,4"/>
<!-- Main -->
<g id="node1" class="node">
<title>Main</title>
<path fill="none" stroke="black" d="M340,-252C340,-252 303,-252 303,-252 297,-252 291,-246 291,-240 291,-240 291,-228 291,-228 291,-222 297,-216 303,-216 303,-216 340,-216 340,-216 346,-216 352,-222 352,-228 352,-228 352,-240 352,-240 352,-246 346,-252 340,-252"/>
<text xml:space="preserve" text-anchor="middle" x="321.5" y="-228.95" font-family="Times New Roman,serif" font-size="14.00">main.py</text>
</g>
<!-- GUI_Init -->
<g id="node2" class="node">
<title>GUI_Init</title>
<path fill="none" stroke="black" d="M280.12,-180C280.12,-180 204.88,-180 204.88,-180 198.88,-180 192.88,-174 192.88,-168 192.88,-168 192.88,-156 192.88,-156 192.88,-150 198.88,-144 204.88,-144 204.88,-144 280.12,-144 280.12,-144 286.12,-144 292.12,-150 292.12,-156 292.12,-156 292.12,-168 292.12,-168 292.12,-174 286.12,-180 280.12,-180"/>
<text xml:space="preserve" text-anchor="middle" x="242.5" y="-156.95" font-family="Times New Roman,serif" font-size="14.00">gui/__init__.py</text>
</g>
<!-- Main&#45;&gt;GUI_Init -->
<g id="edge1" class="edge">
<title>Main&#45;&gt;GUI_Init</title>
<path fill="none" stroke="black" d="M301.97,-215.7C292.48,-207.28 280.89,-197.02 270.48,-187.79"/>
<polygon fill="black" stroke="black" points="273.02,-185.36 263.21,-181.35 268.37,-190.6 273.02,-185.36"/>
</g>
<!-- VPN_Init -->
<g id="node6" class="node">
<title>VPN_Init</title>
<path fill="none" stroke="black" d="M602.62,-180C602.62,-180 494.38,-180 494.38,-180 488.38,-180 482.38,-174 482.38,-168 482.38,-168 482.38,-156 482.38,-156 482.38,-150 488.38,-144 494.38,-144 494.38,-144 602.62,-144 602.62,-144 608.62,-144 614.62,-150 614.62,-156 614.62,-156 614.62,-168 614.62,-168 614.62,-174 608.62,-180 602.62,-180"/>
<text xml:space="preserve" text-anchor="middle" x="548.5" y="-156.95" font-family="Times New Roman,serif" font-size="14.00">vpn_core/__init__.py</text>
</g>
<!-- Main&#45;&gt;VPN_Init -->
<g id="edge2" class="edge">
<title>Main&#45;&gt;VPN_Init</title>
<path fill="none" stroke="black" d="M352.11,-223.56C384.96,-213.43 438.15,-197.03 480.9,-183.84"/>
<polygon fill="black" stroke="black" points="481.84,-187.22 490.36,-180.93 479.78,-180.53 481.84,-187.22"/>
</g>
<!-- MainWindow -->
<g id="node3" class="node">
<title>MainWindow</title>
<path fill="none" stroke="black" d="M103.75,-108C103.75,-108 17.25,-108 17.25,-108 11.25,-108 5.25,-102 5.25,-96 5.25,-96 5.25,-84 5.25,-84 5.25,-78 11.25,-72 17.25,-72 17.25,-72 103.75,-72 103.75,-72 109.75,-72 115.75,-78 115.75,-84 115.75,-84 115.75,-96 115.75,-96 115.75,-102 109.75,-108 103.75,-108"/>
<text xml:space="preserve" text-anchor="middle" x="60.5" y="-84.95" font-family="Times New Roman,serif" font-size="14.00">main_window.py</text>
</g>
<!-- GUI_Init&#45;&gt;MainWindow -->
<g id="edge3" class="edge">
<title>GUI_Init&#45;&gt;MainWindow</title>
<path fill="none" stroke="black" d="M197.04,-143.52C172.52,-134.08 142.05,-122.37 116.12,-112.39"/>
<polygon fill="black" stroke="black" points="117.7,-109.25 107.11,-108.93 115.18,-115.78 117.7,-109.25"/>
</g>
<!-- ServerGrid -->
<g id="node4" class="node">
<title>ServerGrid</title>
<path fill="none" stroke="black" d="M216.88,-108C216.88,-108 146.12,-108 146.12,-108 140.12,-108 134.12,-102 134.12,-96 134.12,-96 134.12,-84 134.12,-84 134.12,-78 140.12,-72 146.12,-72 146.12,-72 216.88,-72 216.88,-72 222.88,-72 228.88,-78 228.88,-84 228.88,-84 228.88,-96 228.88,-96 228.88,-102 222.88,-108 216.88,-108"/>
<text xml:space="preserve" text-anchor="middle" x="181.5" y="-84.95" font-family="Times New Roman,serif" font-size="14.00">server_grid.py</text>
</g>
<!-- GUI_Init&#45;&gt;ServerGrid -->
<g id="edge4" class="edge">
<title>GUI_Init&#45;&gt;ServerGrid</title>
<path fill="none" stroke="black" d="M227.42,-143.7C220.33,-135.56 211.73,-125.69 203.9,-116.7"/>
<polygon fill="black" stroke="black" points="206.61,-114.49 197.4,-109.25 201.33,-119.08 206.61,-114.49"/>
</g>
<!-- SettingsPanel -->
<g id="node5" class="node">
<title>SettingsPanel</title>
<path fill="none" stroke="black" d="M345.75,-108C345.75,-108 259.25,-108 259.25,-108 253.25,-108 247.25,-102 247.25,-96 247.25,-96 247.25,-84 247.25,-84 247.25,-78 253.25,-72 259.25,-72 259.25,-72 345.75,-72 345.75,-72 351.75,-72 357.75,-78 357.75,-84 357.75,-84 357.75,-96 357.75,-96 357.75,-102 351.75,-108 345.75,-108"/>
<text xml:space="preserve" text-anchor="middle" x="302.5" y="-84.95" font-family="Times New Roman,serif" font-size="14.00">settings_panel.py</text>
</g>
<!-- GUI_Init&#45;&gt;SettingsPanel -->
<g id="edge5" class="edge">
<title>GUI_Init&#45;&gt;SettingsPanel</title>
<path fill="none" stroke="black" d="M257.33,-143.7C264.31,-135.56 272.77,-125.69 280.47,-116.7"/>
<polygon fill="black" stroke="black" points="283,-119.12 286.85,-109.25 277.69,-114.57 283,-119.12"/>
</g>
<!-- Logger -->
<g id="node10" class="node">
<title>Logger</title>
<path fill="none" stroke="black" d="M403,-36C403,-36 360,-36 360,-36 354,-36 348,-30 348,-24 348,-24 348,-12 348,-12 348,-6 354,0 360,0 360,0 403,0 403,0 409,0 415,-6 415,-12 415,-12 415,-24 415,-24 415,-30 409,-36 403,-36"/>
<text xml:space="preserve" text-anchor="middle" x="381.5" y="-12.95" font-family="Times New Roman,serif" font-size="14.00">logger.py</text>
</g>
<!-- MainWindow&#45;&gt;Logger -->
<g id="edge9" class="edge">
<title>MainWindow&#45;&gt;Logger</title>
<path fill="none" stroke="black" d="M116.12,-74.25C119.29,-73.47 122.43,-72.72 125.5,-72 199.25,-54.73 285.63,-37.46 336.84,-27.52"/>
<polygon fill="black" stroke="black" points="337.19,-31.02 346.35,-25.68 335.86,-24.14 337.19,-31.02"/>
</g>
<!-- Encrypt -->
<g id="node12" class="node">
<title>Encrypt</title>
<path fill="none" stroke="black" d="M109,-36C109,-36 12,-36 12,-36 6,-36 0,-30 0,-24 0,-24 0,-12 0,-12 0,-6 6,0 12,0 12,0 109,0 109,0 115,0 121,-6 121,-12 121,-12 121,-24 121,-24 121,-30 115,-36 109,-36"/>
<text xml:space="preserve" text-anchor="middle" x="60.5" y="-12.95" font-family="Times New Roman,serif" font-size="14.00">encryption_utils.py</text>
</g>
<!-- MainWindow&#45;&gt;Encrypt -->
<g id="edge16" class="edge">
<title>MainWindow&#45;&gt;Encrypt</title>
<path fill="none" stroke="black" d="M60.5,-71.7C60.5,-64.41 60.5,-55.73 60.5,-47.54"/>
<polygon fill="black" stroke="black" points="64,-47.62 60.5,-37.62 57,-47.62 64,-47.62"/>
</g>
<!-- ServerGrid&#45;&gt;Logger -->
<g id="edge10" class="edge">
<title>ServerGrid&#45;&gt;Logger</title>
<path fill="none" stroke="black" d="M229.15,-72.32C261.81,-60.89 304.84,-45.83 336.84,-34.63"/>
<polygon fill="black" stroke="black" points="337.96,-37.95 346.24,-31.34 335.64,-31.34 337.96,-37.95"/>
</g>
<!-- SettingsPanel&#45;&gt;Logger -->
<g id="edge11" class="edge">
<title>SettingsPanel&#45;&gt;Logger</title>
<path fill="none" stroke="black" d="M322.03,-71.7C331.52,-63.28 343.11,-53.02 353.52,-43.79"/>
<polygon fill="black" stroke="black" points="355.63,-46.6 360.79,-37.35 350.98,-41.36 355.63,-46.6"/>
</g>
<!-- WireGuard -->
<g id="node7" class="node">
<title>WireGuard</title>
<path fill="none" stroke="black" d="M848.75,-108C848.75,-108 738.25,-108 738.25,-108 732.25,-108 726.25,-102 726.25,-96 726.25,-96 726.25,-84 726.25,-84 726.25,-78 732.25,-72 738.25,-72 738.25,-72 848.75,-72 848.75,-72 854.75,-72 860.75,-78 860.75,-84 860.75,-84 860.75,-96 860.75,-96 860.75,-102 854.75,-108 848.75,-108"/>
<text xml:space="preserve" text-anchor="middle" x="793.5" y="-84.95" font-family="Times New Roman,serif" font-size="14.00">wireguard_handler.py</text>
</g>
<!-- VPN_Init&#45;&gt;WireGuard -->
<g id="edge6" class="edge">
<title>VPN_Init&#45;&gt;WireGuard</title>
<path fill="none" stroke="black" d="M609.69,-143.52C643.73,-133.79 686.28,-121.64 721.86,-111.47"/>
<polygon fill="black" stroke="black" points="722.56,-114.91 731.21,-108.8 720.63,-108.18 722.56,-114.91"/>
</g>
<!-- RealWin -->
<g id="node8" class="node">
<title>RealWin</title>
<path fill="none" stroke="black" d="M534.75,-108C534.75,-108 388.25,-108 388.25,-108 382.25,-108 376.25,-102 376.25,-96 376.25,-96 376.25,-84 376.25,-84 376.25,-78 382.25,-72 388.25,-72 388.25,-72 534.75,-72 534.75,-72 540.75,-72 546.75,-78 546.75,-84 546.75,-84 546.75,-96 546.75,-96 546.75,-102 540.75,-108 534.75,-108"/>
<text xml:space="preserve" text-anchor="middle" x="461.5" y="-84.95" font-family="Times New Roman,serif" font-size="14.00">real_windows_wireguard.py</text>
</g>
<!-- VPN_Init&#45;&gt;RealWin -->
<g id="edge7" class="edge">
<title>VPN_Init&#45;&gt;RealWin</title>
<path fill="none" stroke="black" d="M526.99,-143.7C516.43,-135.2 503.52,-124.81 491.97,-115.51"/>
<polygon fill="black" stroke="black" points="494.22,-112.84 484.24,-109.3 489.84,-118.29 494.22,-112.84"/>
</g>
<!-- SimpleVPN -->
<g id="node9" class="node">
<title>SimpleVPN</title>
<path fill="none" stroke="black" d="M696.25,-108C696.25,-108 576.75,-108 576.75,-108 570.75,-108 564.75,-102 564.75,-96 564.75,-96 564.75,-84 564.75,-84 564.75,-78 570.75,-72 576.75,-72 576.75,-72 696.25,-72 696.25,-72 702.25,-72 708.25,-78 708.25,-84 708.25,-84 708.25,-96 708.25,-96 708.25,-102 702.25,-108 696.25,-108"/>
<text xml:space="preserve" text-anchor="middle" x="636.5" y="-84.95" font-family="Times New Roman,serif" font-size="14.00">simple_vpn_handler.py</text>
</g>
<!-- VPN_Init&#45;&gt;SimpleVPN -->
<g id="edge8" class="edge">
<title>VPN_Init&#45;&gt;SimpleVPN</title>
<path fill="none" stroke="black" d="M570.25,-143.7C580.94,-135.2 593.99,-124.81 605.68,-115.51"/>
<polygon fill="black" stroke="black" points="607.86,-118.25 613.51,-109.29 603.5,-112.78 607.86,-118.25"/>
</g>
<!-- WireGuard&#45;&gt;Logger -->
<g id="edge13" class="edge">
<title>WireGuard&#45;&gt;Logger</title>
<path fill="none" stroke="black" d="M726,-73.67C723.13,-73.09 720.29,-72.53 717.5,-72 614.01,-52.28 491.59,-34.31 426.88,-25.22"/>
<polygon fill="black" stroke="black" points="427.37,-21.76 416.98,-23.84 426.4,-28.69 427.37,-21.76"/>
</g>
<!-- SpeedTest -->
<g id="node11" class="node">
<title>SpeedTest</title>
<path fill="none" stroke="black" d="M837.88,-36C837.88,-36 749.12,-36 749.12,-36 743.12,-36 737.12,-30 737.12,-24 737.12,-24 737.12,-12 737.12,-12 737.12,-6 743.12,0 749.12,0 749.12,0 837.88,0 837.88,0 843.88,0 849.88,-6 849.88,-12 849.88,-12 849.88,-24 849.88,-24 849.88,-30 843.88,-36 837.88,-36"/>
<text xml:space="preserve" text-anchor="middle" x="793.5" y="-12.95" font-family="Times New Roman,serif" font-size="14.00">speedtest_utils.py</text>
</g>
<!-- WireGuard&#45;&gt;SpeedTest -->
<g id="edge12" class="edge">
<title>WireGuard&#45;&gt;SpeedTest</title>
<path fill="none" stroke="black" d="M793.5,-71.7C793.5,-64.41 793.5,-55.73 793.5,-47.54"/>
<polygon fill="black" stroke="black" points="797,-47.62 793.5,-37.62 790,-47.62 797,-47.62"/>
</g>
<!-- RealWin&#45;&gt;Logger -->
<g id="edge14" class="edge">
<title>RealWin&#45;&gt;Logger</title>
<path fill="none" stroke="black" d="M441.72,-71.7C432.11,-63.28 420.38,-53.02 409.83,-43.79"/>
<polygon fill="black" stroke="black" points="412.29,-41.29 402.46,-37.34 407.69,-46.56 412.29,-41.29"/>
</g>
<!-- SimpleVPN&#45;&gt;Logger -->
<g id="edge15" class="edge">
<title>SimpleVPN&#45;&gt;Logger</title>
<path fill="none" stroke="black" d="M572.81,-71.52C527.23,-59.01 467,-42.47 426.4,-31.32"/>
<polygon fill="black" stroke="black" points="427.52,-28 416.95,-28.73 425.67,-34.75 427.52,-28"/>
</g>
</g>
</svg>
