<?xml version="1.0" encoding="UTF-8" standalone="no"?>
<!DOCTYPE svg PUBLIC "-//W3C//DTD SVG 1.1//EN"
 "http://www.w3.org/Graphics/SVG/1.1/DTD/svg11.dtd">
<!-- Generated by graphviz version 14.1.3 (20260303.0454)
 -->
<!-- Title: state_machine Pages: 1 -->
<svg width="348pt" height="508pt"
 viewBox="0.00 0.00 348.00 508.00" xmlns="http://www.w3.org/2000/svg" xmlns:xlink="http://www.w3.org/1999/xlink">
<g id="graph0" class="graph" transform="scale(1 1) rotate(0) translate(4 503.91)">
<title>state_machine</title>
<polygon fill="white" stroke="none" points="-4,4 -4,-503.91 343.88,-503.91 343.88,4 -4,4"/>
<!-- Disconnected -->
<g id="node1" class="node">
<title>Disconnected</title>
<ellipse fill="none" stroke="black" cx="137" cy="-470.92" rx="84.5" ry="28.99"/>
<text xml:space="preserve" text-anchor="middle" x="137" y="-474.12" font-family="Times New Roman,serif" font-size="14.00">DISCONNECTED</text>
<text xml:space="preserve" text-anchor="middle" x="137" y="-457.62" font-family="Times New Roman,serif" font-size="14.00">(Initial State)</text>
</g>
<!-- Connecting -->
<g id="node2" class="node">
<title>Connecting</title>
<ellipse fill="none" stroke="black" cx="137" cy="-360.44" rx="73.36" ry="28.99"/>
<text xml:space="preserve" text-anchor="middle" x="137" y="-363.64" font-family="Times New Roman,serif" font-size="14.00">CONNECTING</text>
<text xml:space="preserve" text-anchor="middle" x="137" y="-347.14" font-family="Times New Roman,serif" font-size="14.00">(Async Op)</text>
</g>
<!-- Disconnected&#45;&gt;Connecting -->
<g id="edge1" class="edge">
<title>Disconnected&#45;&gt;Connecting</title>
<path fill="none" stroke="black" d="M137,-441.7C137,-429.37 137,-414.68 137,-401.27"/>
<polygon fill="black" stroke="black" points="140.5,-401.41 137,-391.41 133.5,-401.41 140.5,-401.41"/>
<text xml:space="preserve" text-anchor="middle" x="162.5" y="-410.63" font-family="Times New Roman,serif" font-size="14.00">connect()</text>
</g>
<!-- Connected -->
<g id="node3" class="node">
<title>Connected</title>
<ellipse fill="none" stroke="black" cx="120" cy="-249.96" rx="72.3" ry="28.99"/>
<text xml:space="preserve" text-anchor="middle" x="120" y="-253.16" font-family="Times New Roman,serif" font-size="14.00">CONNECTED</text>
<text xml:space="preserve" text-anchor="middle" x="120" y="-236.66" font-family="Times New Roman,serif" font-size="14.00">(Tunnel Active)</text>
</g>
<!-- Connecting&#45;&gt;Connected -->
<g id="edge2" class="edge">
<title>Connecting&#45;&gt;Connected</title>
<path fill="none" stroke="black" d="M132.58,-331.22C130.61,-318.66 128.26,-303.67 126.13,-290.06"/>
<polygon fill="black" stroke="black" points="129.64,-289.87 124.63,-280.53 122.72,-290.95 129.64,-289.87"/>
<text xml:space="preserve" text-anchor="middle" x="150.89" y="-300.15" font-family="Times New Roman,serif" font-size="14.00">Success</text>
</g>
<!-- Error -->
<g id="node5" class="node">
<title>Error</title>
<ellipse fill="none" stroke="black" cx="275" cy="-249.96" rx="64.88" ry="28.99"/>
<text xml:space="preserve" text-anchor="middle" x="275" y="-253.16" font-family="Times New Roman,serif" font-size="14.00">ERROR</text>
<text xml:space="preserve" text-anchor="middle" x="275" y="-236.66" font-family="Times New Roman,serif" font-size="14.00">(Failed Conn)</text>
</g>
<!-- Connecting&#45;&gt;Error -->
<g id="edge3" class="edge">
<title>Connecting&#45;&gt;Error</title>
<path fill="none" stroke="black" d="M169.35,-334.01C188.92,-318.62 214.03,-298.88 234.86,-282.51"/>
<polygon fill="black" stroke="black" points="236.91,-285.35 242.61,-276.42 232.58,-279.85 236.91,-285.35"/>
<text xml:space="preserve" text-anchor="middle" x="224.76" y="-300.15" font-family="Times New Roman,serif" font-size="14.00">Fail</text>
</g>
<!-- Disconnecting -->
<g id="node4" class="node">
<title>Disconnecting</title>
<ellipse fill="none" stroke="black" cx="105" cy="-28.99" rx="88.74" ry="28.99"/>
<text xml:space="preserve" text-anchor="middle" x="105" y="-32.19" font-family="Times New Roman,serif" font-size="14.00">DISCONNECTING</text>
<text xml:space="preserve" text-anchor="middle" x="105" y="-15.69" font-family="Times New Roman,serif" font-size="14.00">(Cleanup)</text>
</g>
<!-- Connected&#45;&gt;Disconnecting -->
<g id="edge6" class="edge">
<title>Connected&#45;&gt;Disconnecting</title>
<path fill="none" stroke="black" d="M177.75,-232.46C191.65,-225.63 204.83,-216.12 213,-202.97 216.87,-196.74 214.18,-193.7 213,-186.47 204.67,-135.36 207.73,-116.91 176,-75.98 171.69,-70.42 166.5,-65.33 160.93,-60.73"/>
<polygon fill="black" stroke="black" points="163.2,-58.06 153.11,-54.82 158.97,-63.64 163.2,-58.06"/>
<text xml:space="preserve" text-anchor="middle" x="243.54" y="-134.42" font-family="Times New Roman,serif" font-size="14.00">disconnect()</text>
</g>
<!-- Idle -->
<g id="node6" class="node">
<title>Idle</title>
<ellipse fill="none" stroke="black" cx="105" cy="-139.47" rx="62.76" ry="28.99"/>
<text xml:space="preserve" text-anchor="middle" x="105" y="-142.67" font-family="Times New Roman,serif" font-size="14.00">IDLE</text>
<text xml:space="preserve" text-anchor="middle" x="105" y="-126.17" font-family="Times New Roman,serif" font-size="14.00">(No Activity)</text>
</g>
<!-- Connected&#45;&gt;Idle -->
<g id="edge4" class="edge">
<title>Connected&#45;&gt;Idle</title>
<path fill="none" stroke="black" d="M65.31,-230.82C52.99,-224.06 41.45,-215 34.25,-202.97 25.68,-188.64 35.13,-175.82 49.62,-165.58"/>
<polygon fill="black" stroke="black" points="51.31,-168.65 57.89,-160.35 47.57,-162.73 51.31,-168.65"/>
<text xml:space="preserve" text-anchor="middle" x="66.12" y="-189.67" font-family="Times New Roman,serif" font-size="14.00">No Activity</text>
</g>
<!-- Disconnecting&#45;&gt;Disconnected -->
<g id="edge8" class="edge">
<title>Disconnecting&#45;&gt;Disconnected</title>
<path fill="none" stroke="black" d="M59.56,-54.23C31.18,-72.98 0,-101.91 0,-138.47 0,-361.44 0,-361.44 0,-361.44 0,-400.24 34.18,-427.34 68.4,-444.76"/>
<polygon fill="black" stroke="black" points="66.61,-447.78 77.14,-448.97 69.65,-441.47 66.61,-447.78"/>
<text xml:space="preserve" text-anchor="middle" x="14.62" y="-244.91" font-family="Times New Roman,serif" font-size="14.00">Done</text>
</g>
<!-- Error&#45;&gt;Disconnected -->
<g id="edge9" class="edge">
<title>Error&#45;&gt;Disconnected</title>
<path fill="none" stroke="black" d="M267.6,-279.05C256.58,-316.22 232.66,-381.93 192,-423.93 187.83,-428.23 183.29,-432.55 178.66,-436.71"/>
<polygon fill="black" stroke="black" points="176.66,-433.8 171.43,-443.02 181.27,-439.08 176.66,-433.8"/>
<text xml:space="preserve" text-anchor="middle" x="263.97" y="-355.39" font-family="Times New Roman,serif" font-size="14.00">Reset</text>
</g>
<!-- Idle&#45;&gt;Connected -->
<g id="edge5" class="edge">
<title>Idle&#45;&gt;Connected</title>
<path fill="none" stroke="black" d="M108.88,-168.55C110.62,-181.09 112.69,-196.08 114.57,-209.7"/>
<polygon fill="black" stroke="black" points="111.05,-209.81 115.89,-219.24 117.99,-208.85 111.05,-209.81"/>
<text xml:space="preserve" text-anchor="middle" x="161.4" y="-189.67" font-family="Times New Roman,serif" font-size="14.00">Activity Detected</text>
</g>
<!-- Idle&#45;&gt;Disconnecting -->
<g id="edge7" class="edge">
<title>Idle&#45;&gt;Disconnecting</title>
<path fill="none" stroke="black" d="M105,-110.25C105,-97.92 105,-83.24 105,-69.82"/>
<polygon fill="black" stroke="black" points="108.5,-69.96 105,-59.96 101.5,-69.96 108.5,-69.96"/>
<text xml:space="preserve" text-anchor="middle" x="138.38" y="-79.18" font-family="Times New Roman,serif" font-size="14.00">disconnect()</text>
</g>
</g>
</svg>
