<?xml version="1.0" encoding="UTF-8" standalone="no"?>
<!DOCTYPE svg PUBLIC "-//W3C//DTD SVG 1.1//EN"
 "http://www.w3.org/Graphics/SVG/1.1/DTD/svg11.dtd">
<!-- Generated by graphviz version 14.1.3 (20260303.0454)
 -->
<!-- Title: threading Pages: 1 -->
<svg width="515pt" height="176pt"
 viewBox="0.00 0.00 515.00 176.00" xmlns="http://www.w3.org/2000/svg" xmlns:xlink="http://www.w3.org/1999/xlink">
<g id="graph0" class="graph" transform="scale(1 1) rotate(0) translate(4 171.5)">
<title>threading</title>
<polygon fill="white" stroke="none" points="-4,4 -4,-171.5 510.74,-171.5 510.74,4 -4,4"/>
<!-- MainThread -->
<g id="node1" class="node">
<title>MainThread</title>
<path fill="none" stroke="black" d="M306.25,-167.5C306.25,-167.5 224.25,-167.5 224.25,-167.5 218.25,-167.5 212.25,-161.5 212.25,-155.5 212.25,-155.5 212.25,-122 212.25,-122 212.25,-116 218.25,-110 224.25,-110 224.25,-110 306.25,-110 306.25,-110 312.25,-110 318.25,-116 318.25,-122 318.25,-122 318.25,-155.5 318.25,-155.5 318.25,-161.5 312.25,-167.5 306.25,-167.5"/>
<text xml:space="preserve" text-anchor="middle" x="265.25" y="-150.2" font-family="Times New Roman,serif" font-size="14.00">Main Thread</text>
<text xml:space="preserve" text-anchor="middle" x="265.25" y="-133.7" font-family="Times New Roman,serif" font-size="14.00">(Qt Event Loop)</text>
<text xml:space="preserve" text-anchor="middle" x="265.25" y="-117.2" font-family="Times New Roman,serif" font-size="14.00">GUI Rendering</text>
</g>
<!-- ConnectionMonitor -->
<g id="node2" class="node">
<title>ConnectionMonitor</title>
<path fill="none" stroke="black" d="M152.5,-57.5C152.5,-57.5 12,-57.5 12,-57.5 6,-57.5 0,-51.5 0,-45.5 0,-45.5 0,-12 0,-12 0,-6 6,0 12,0 12,0 152.5,0 152.5,0 158.5,0 164.5,-6 164.5,-12 164.5,-12 164.5,-45.5 164.5,-45.5 164.5,-51.5 158.5,-57.5 152.5,-57.5"/>
<text xml:space="preserve" text-anchor="middle" x="82.25" y="-40.2" font-family="Times New Roman,serif" font-size="14.00">ConnectionMonitor Thread</text>
<text xml:space="preserve" text-anchor="middle" x="82.25" y="-23.7" font-family="Times New Roman,serif" font-size="14.00">(QThread)</text>
<text xml:space="preserve" text-anchor="middle" x="82.25" y="-7.2" font-family="Times New Roman,serif" font-size="14.00">Polls every 2s</text>
</g>
<!-- MainThread&#45;&gt;ConnectionMonitor -->
<g id="edge1" class="edge">
<title>MainThread&#45;&gt;ConnectionMonitor</title>
<path fill="none" stroke="black" d="M212.03,-133.32C157.69,-127.56 78.72,-115.36 60,-92 54.45,-85.07 54.28,-76.65 56.75,-68.27"/>
<polygon fill="black" stroke="black" points="59.92,-69.76 60.51,-59.18 53.45,-67.09 59.92,-69.76"/>
<text xml:space="preserve" text-anchor="middle" x="92.62" y="-78.7" font-family="Times New Roman,serif" font-size="14.00">Signal Emit</text>
</g>
<!-- VPNThread -->
<g id="node3" class="node">
<title>VPNThread</title>
<path fill="none" stroke="black" d="M323.38,-57.5C323.38,-57.5 197.12,-57.5 197.12,-57.5 191.12,-57.5 185.12,-51.5 185.12,-45.5 185.12,-45.5 185.12,-12 185.12,-12 185.12,-6 191.12,0 197.12,0 197.12,0 323.38,0 323.38,0 329.38,0 335.38,-6 335.38,-12 335.38,-12 335.38,-45.5 335.38,-45.5 335.38,-51.5 329.38,-57.5 323.38,-57.5"/>
<text xml:space="preserve" text-anchor="middle" x="260.25" y="-40.2" font-family="Times New Roman,serif" font-size="14.00">VPN Connection Thread</text>
<text xml:space="preserve" text-anchor="middle" x="260.25" y="-23.7" font-family="Times New Roman,serif" font-size="14.00">(background)</text>
<text xml:space="preserve" text-anchor="middle" x="260.25" y="-7.2" font-family="Times New Roman,serif" font-size="14.00">Async wg&#45;quick</text>
</g>
<!-- MainThread&#45;&gt;VPNThread -->
<g id="edge2" class="edge">
<title>MainThread&#45;&gt;VPNThread</title>
<path fill="none" stroke="black" d="M249.1,-109.95C246.47,-104.19 244.15,-98.03 242.75,-92 240.99,-84.43 241.46,-76.41 243.08,-68.73"/>
<polygon fill="black" stroke="black" points="246.41,-69.84 245.75,-59.27 239.67,-67.94 246.41,-69.84"/>
<text xml:space="preserve" text-anchor="middle" x="255.5" y="-78.7" font-family="Times New Roman,serif" font-size="14.00">Start</text>
</g>
<!-- PingThread -->
<g id="node4" class="node">
<title>PingThread</title>
<path fill="none" stroke="black" d="M482.5,-57.5C482.5,-57.5 402,-57.5 402,-57.5 396,-57.5 390,-51.5 390,-45.5 390,-45.5 390,-12 390,-12 390,-6 396,0 402,0 402,0 482.5,0 482.5,0 488.5,0 494.5,-6 494.5,-12 494.5,-12 494.5,-45.5 494.5,-45.5 494.5,-51.5 488.5,-57.5 482.5,-57.5"/>
<text xml:space="preserve" text-anchor="middle" x="442.25" y="-40.2" font-family="Times New Roman,serif" font-size="14.00">PingTest Thread</text>
<text xml:space="preserve" text-anchor="middle" x="442.25" y="-23.7" font-family="Times New Roman,serif" font-size="14.00">(ThreadPool)</text>
<text xml:space="preserve" text-anchor="middle" x="442.25" y="-7.2" font-family="Times New Roman,serif" font-size="14.00">Parallel Tests</text>
</g>
<!-- MainThread&#45;&gt;PingThread -->
<g id="edge3" class="edge">
<title>MainThread&#45;&gt;PingThread</title>
<path fill="none" stroke="black" d="M313.65,-109.67C323.48,-103.88 333.72,-97.79 343.25,-92 358.05,-83.01 373.99,-73.1 388.65,-63.87"/>
<polygon fill="black" stroke="black" points="390.2,-67.03 396.8,-58.74 386.47,-61.11 390.2,-67.03"/>
<text xml:space="preserve" text-anchor="middle" x="394.85" y="-78.7" font-family="Times New Roman,serif" font-size="14.00">Start Pool</text>
</g>
<!-- ConnectionMonitor&#45;&gt;MainThread -->
<g id="edge4" class="edge">
<title>ConnectionMonitor&#45;&gt;MainThread</title>
<path fill="none" stroke="black" d="M116.94,-57.74C131.81,-69.09 149.66,-81.88 166.75,-92 177.73,-98.5 189.79,-104.77 201.58,-110.46"/>
<polygon fill="black" stroke="black" points="199.95,-113.56 210.48,-114.66 202.94,-107.23 199.95,-113.56"/>
<text xml:space="preserve" text-anchor="middle" x="202" y="-78.7" font-family="Times New Roman,serif" font-size="14.00">queued_emit</text>
</g>
<!-- VPNThread&#45;&gt;MainThread -->
<g id="edge5" class="edge">
<title>VPNThread&#45;&gt;MainThread</title>
<path fill="none" stroke="black" d="M265.93,-57.72C266.9,-63.57 267.75,-69.72 268.25,-75.5 268.88,-82.79 268.97,-90.56 268.76,-98.07"/>
<polygon fill="black" stroke="black" points="265.27,-97.85 268.29,-108.01 272.26,-98.19 265.27,-97.85"/>
<text xml:space="preserve" text-anchor="middle" x="304.11" y="-78.7" font-family="Times New Roman,serif" font-size="14.00">queued_emit</text>
</g>
<!-- PingThread&#45;&gt;MainThread -->
<g id="edge6" class="edge">
<title>PingThread&#45;&gt;MainThread</title>
<path fill="none" stroke="black" d="M441.09,-57.87C439.2,-69.79 435.05,-82.97 426.25,-92 401.1,-117.8 362.55,-129.34 329.47,-134.38"/>
<polygon fill="black" stroke="black" points="329.44,-130.85 319.99,-135.65 330.37,-137.79 329.44,-130.85"/>
<text xml:space="preserve" text-anchor="middle" x="471.49" y="-78.7" font-family="Times New Roman,serif" font-size="14.00">queued_emit</text>
</g>
</g>
</svg>
