<?xml version="1.0" encoding="UTF-8" standalone="no"?>
<!DOCTYPE svg PUBLIC "-//W3C//DTD SVG 1.1//EN"
 "http://www.w3.org/Graphics/SVG/1.1/DTD/svg11.dtd">
<!-- Generated by graphviz version 14.1.3 (20260303.0454)
 -->
<!-- Title: polymorphism Pages: 1 -->
<svg width="443pt" height="143pt"
 viewBox="0.00 0.00 443.00 143.00" xmlns="http://www.w3.org/2000/svg" xmlns:xlink="http://www.w3.org/1999/xlink">
<g id="graph0" class="graph" transform="scale(1 1) rotate(0) translate(4 138.5)">
<title>polymorphism</title>
<polygon fill="white" stroke="none" points="-4,4 -4,-138.5 438.75,-138.5 438.75,4 -4,4"/>
<!-- Interface -->
<g id="node1" class="node">
<title>Interface</title>
<path fill="none" stroke="black" d="M163.25,-134.5C163.25,-134.5 73,-134.5 73,-134.5 67,-134.5 61,-128.5 61,-122.5 61,-122.5 61,-105.5 61,-105.5 61,-99.5 67,-93.5 73,-93.5 73,-93.5 163.25,-93.5 163.25,-93.5 169.25,-93.5 175.25,-99.5 175.25,-105.5 175.25,-105.5 175.25,-122.5 175.25,-122.5 175.25,-128.5 169.25,-134.5 163.25,-134.5"/>
<text xml:space="preserve" text-anchor="middle" x="118.12" y="-117.2" font-family="Times New Roman,serif" font-size="14.00">VPN Handler</text>
<text xml:space="preserve" text-anchor="middle" x="118.12" y="-100.7" font-family="Times New Roman,serif" font-size="14.00">Interface Contract</text>
</g>
<!-- WireGuard -->
<g id="node2" class="node">
<title>WireGuard</title>
<path fill="none" stroke="black" d="M108.25,-41C108.25,-41 12,-41 12,-41 6,-41 0,-35 0,-29 0,-29 0,-12 0,-12 0,-6 6,0 12,0 12,0 108.25,0 108.25,0 114.25,0 120.25,-6 120.25,-12 120.25,-12 120.25,-29 120.25,-29 120.25,-35 114.25,-41 108.25,-41"/>
<text xml:space="preserve" text-anchor="middle" x="60.12" y="-23.7" font-family="Times New Roman,serif" font-size="14.00">WireGuardHandler</text>
<text xml:space="preserve" text-anchor="middle" x="60.12" y="-7.2" font-family="Times New Roman,serif" font-size="14.00">(Cross&#45;platform)</text>
</g>
<!-- Interface&#45;&gt;WireGuard -->
<g id="edge1" class="edge">
<title>Interface&#45;&gt;WireGuard</title>
<path fill="none" stroke="black" d="M105.54,-93.15C97.71,-80.8 87.5,-64.69 78.75,-50.88"/>
<polygon fill="black" stroke="black" points="81.81,-49.17 73.5,-42.59 75.89,-52.91 81.81,-49.17"/>
</g>
<!-- RealWin -->
<g id="node3" class="node">
<title>RealWin</title>
<path fill="none" stroke="black" d="M422.75,-41C422.75,-41 293.5,-41 293.5,-41 287.5,-41 281.5,-35 281.5,-29 281.5,-29 281.5,-12 281.5,-12 281.5,-6 287.5,0 293.5,0 293.5,0 422.75,0 422.75,0 428.75,0 434.75,-6 434.75,-12 434.75,-12 434.75,-29 434.75,-29 434.75,-35 428.75,-41 422.75,-41"/>
<text xml:space="preserve" text-anchor="middle" x="358.12" y="-23.7" font-family="Times New Roman,serif" font-size="14.00">RealWindowsWireGuard</text>
<text xml:space="preserve" text-anchor="middle" x="358.12" y="-7.2" font-family="Times New Roman,serif" font-size="14.00">(Windows Native)</text>
</g>
<!-- Interface&#45;&gt;RealWin -->
<g id="edge2" class="edge">
<title>Interface&#45;&gt;RealWin</title>
<path fill="none" stroke="black" d="M175.47,-96.14C192.99,-90.32 212.11,-83.29 229.12,-75.5 242.26,-69.49 244.08,-65.2 257.12,-59 267.07,-54.27 277.78,-49.73 288.38,-45.55"/>
<polygon fill="black" stroke="black" points="289.43,-48.89 297.5,-42.03 286.91,-42.36 289.43,-48.89"/>
</g>
<!-- SimpleVPN -->
<g id="node4" class="node">
<title>SimpleVPN</title>
<path fill="none" stroke="black" d="M251.88,-41C251.88,-41 150.38,-41 150.38,-41 144.38,-41 138.38,-35 138.38,-29 138.38,-29 138.38,-12 138.38,-12 138.38,-6 144.38,0 150.38,0 150.38,0 251.88,0 251.88,0 257.88,0 263.88,-6 263.88,-12 263.88,-12 263.88,-29 263.88,-29 263.88,-35 257.88,-41 251.88,-41"/>
<text xml:space="preserve" text-anchor="middle" x="201.12" y="-23.7" font-family="Times New Roman,serif" font-size="14.00">SimpleVPNHandler</text>
<text xml:space="preserve" text-anchor="middle" x="201.12" y="-7.2" font-family="Times New Roman,serif" font-size="14.00">(Demo/Fallback)</text>
</g>
<!-- Interface&#45;&gt;SimpleVPN -->
<g id="edge3" class="edge">
<title>Interface&#45;&gt;SimpleVPN</title>
<path fill="none" stroke="black" d="M119.44,-93.07C121.05,-82.06 124.55,-68.69 132.12,-59 135.28,-54.96 138.99,-51.3 143.04,-48"/>
<polygon fill="black" stroke="black" points="145.02,-50.88 151.1,-42.2 140.93,-45.2 145.02,-50.88"/>
</g>
<!-- SelectLogic -->
<g id="node5" class="node">
<title>SelectLogic</title>
<path fill="none" stroke="black" d="M320.88,-134.5C320.88,-134.5 231.38,-134.5 231.38,-134.5 225.38,-134.5 219.38,-128.5 219.38,-122.5 219.38,-122.5 219.38,-105.5 219.38,-105.5 219.38,-99.5 225.38,-93.5 231.38,-93.5 231.38,-93.5 320.88,-93.5 320.88,-93.5 326.88,-93.5 332.88,-99.5 332.88,-105.5 332.88,-105.5 332.88,-122.5 332.88,-122.5 332.88,-128.5 326.88,-134.5 320.88,-134.5"/>
<text xml:space="preserve" text-anchor="middle" x="276.12" y="-117.2" font-family="Times New Roman,serif" font-size="14.00">Handler Selection</text>
<text xml:space="preserve" text-anchor="middle" x="276.12" y="-100.7" font-family="Times New Roman,serif" font-size="14.00">Logic (main.py)</text>
</g>
<!-- SelectLogic&#45;&gt;WireGuard -->
<g id="edge4" class="edge">
<title>SelectLogic&#45;&gt;WireGuard</title>
<path fill="none" stroke="black" d="M219,-98.91C197.47,-92.8 173.03,-84.87 151.62,-75.5 133.72,-67.66 114.95,-57.05 99.11,-47.31"/>
<polygon fill="black" stroke="black" points="101.27,-44.54 90.94,-42.2 97.56,-50.47 101.27,-44.54"/>
<text xml:space="preserve" text-anchor="middle" x="189.88" y="-62.2" font-family="Times New Roman,serif" font-size="14.00">Linux/macOS</text>
</g>
<!-- SelectLogic&#45;&gt;RealWin -->
<g id="edge5" class="edge">
<title>SelectLogic&#45;&gt;RealWin</title>
<path fill="none" stroke="black" d="M293.92,-93.15C305.31,-80.44 320.26,-63.75 332.87,-49.68"/>
<polygon fill="black" stroke="black" points="335.29,-52.23 339.36,-42.44 330.08,-47.55 335.29,-52.23"/>
<text xml:space="preserve" text-anchor="middle" x="350.34" y="-62.2" font-family="Times New Roman,serif" font-size="14.00">Windows</text>
</g>
<!-- SelectLogic&#45;&gt;SimpleVPN -->
<g id="edge6" class="edge">
<title>SelectLogic&#45;&gt;SimpleVPN</title>
<path fill="none" stroke="black" d="M260.07,-93.22C251.75,-82.99 241.41,-70.31 232.12,-59 229.77,-56.13 227.3,-53.13 224.84,-50.15"/>
<polygon fill="black" stroke="black" points="227.59,-47.98 218.52,-42.5 222.19,-52.44 227.59,-47.98"/>
<text xml:space="preserve" text-anchor="middle" x="268.71" y="-62.2" font-family="Times New Roman,serif" font-size="14.00">Fallback</text>
</g>
</g>
</svg>
