<?xml version="1.0" encoding="UTF-8" standalone="no"?>
<!DOCTYPE svg PUBLIC "-//W3C//DTD SVG 1.1//EN"
 "http://www.w3.org/Graphics/SVG/1.1/DTD/svg11.dtd">
<!-- Generated by graphviz version 14.1.3 (20260303.0454)
 -->
<!-- Title: filesystem Pages: 1 -->
<svg width="796pt" height="206pt"
 viewBox="0.00 0.00 796.00 206.00" xmlns="http://www.w3.org/2000/svg" xmlns:xlink="http://www.w3.org/1999/xlink">
<g id="graph0" class="graph" transform="scale(1 1) rotate(0) translate(4 201.5)">
<title>filesystem</title>
<polygon fill="white" stroke="none" points="-4,4 -4,-201.5 792.4,-201.5 792.4,4 -4,4"/>
<!-- Root -->
<g id="node1" class="node">
<title>Root</title>
<polygon fill="none" stroke="black" points="451.62,-197.5 448.62,-201.5 427.62,-201.5 424.62,-197.5 371.12,-197.5 371.12,-161.5 451.62,-161.5 451.62,-197.5"/>
<text xml:space="preserve" text-anchor="middle" x="411.38" y="-174.45" font-family="Times New Roman,serif" font-size="14.00">OnamVPN/</text>
</g>
<!-- Config -->
<g id="node2" class="node">
<title>Config</title>
<polygon fill="none" stroke="black" points="230.5,-124.5 227.5,-128.5 206.5,-128.5 203.5,-124.5 176.25,-124.5 176.25,-88.5 230.5,-88.5 230.5,-124.5"/>
<text xml:space="preserve" text-anchor="middle" x="203.38" y="-101.45" font-family="Times New Roman,serif" font-size="14.00">config/</text>
</g>
<!-- Root&#45;&gt;Config -->
<g id="edge1" class="edge">
<title>Root&#45;&gt;Config</title>
<path fill="none" stroke="black" d="M370.78,-164.64C333.38,-151.88 278.31,-133.08 241.67,-120.57"/>
<polygon fill="black" stroke="black" points="242.95,-117.31 232.36,-117.39 240.69,-123.94 242.95,-117.31"/>
</g>
<!-- Logs -->
<g id="node3" class="node">
<title>Logs</title>
<polygon fill="none" stroke="black" points="366.38,-124.5 363.38,-128.5 342.38,-128.5 339.38,-124.5 312.38,-124.5 312.38,-88.5 366.38,-88.5 366.38,-124.5"/>
<text xml:space="preserve" text-anchor="middle" x="339.38" y="-101.45" font-family="Times New Roman,serif" font-size="14.00">logs/</text>
</g>
<!-- Root&#45;&gt;Logs -->
<g id="edge2" class="edge">
<title>Root&#45;&gt;Logs</title>
<path fill="none" stroke="black" d="M393.95,-161.31C385.25,-152.74 374.58,-142.21 364.97,-132.74"/>
<polygon fill="black" stroke="black" points="367.55,-130.37 357.97,-125.84 362.63,-135.35 367.55,-130.37"/>
</g>
<!-- Keys -->
<g id="node4" class="node">
<title>Keys</title>
<polygon fill="none" stroke="black" points="438.38,-124.5 435.38,-128.5 414.38,-128.5 411.38,-124.5 384.38,-124.5 384.38,-88.5 438.38,-88.5 438.38,-124.5"/>
<text xml:space="preserve" text-anchor="middle" x="411.38" y="-101.45" font-family="Times New Roman,serif" font-size="14.00">keys/</text>
</g>
<!-- Root&#45;&gt;Keys -->
<g id="edge3" class="edge">
<title>Root&#45;&gt;Keys</title>
<path fill="none" stroke="black" d="M411.38,-161.31C411.38,-153.73 411.38,-144.6 411.38,-136.04"/>
<polygon fill="black" stroke="black" points="414.88,-136.04 411.38,-126.04 407.88,-136.04 414.88,-136.04"/>
</g>
<!-- GUI -->
<g id="node5" class="node">
<title>GUI</title>
<polygon fill="none" stroke="black" points="510.38,-124.5 507.38,-128.5 486.38,-128.5 483.38,-124.5 456.38,-124.5 456.38,-88.5 510.38,-88.5 510.38,-124.5"/>
<text xml:space="preserve" text-anchor="middle" x="483.38" y="-101.45" font-family="Times New Roman,serif" font-size="14.00">gui/</text>
</g>
<!-- Root&#45;&gt;GUI -->
<g id="edge4" class="edge">
<title>Root&#45;&gt;GUI</title>
<path fill="none" stroke="black" d="M428.8,-161.31C437.5,-152.74 448.17,-142.21 457.78,-132.74"/>
<polygon fill="black" stroke="black" points="460.12,-135.35 464.78,-125.84 455.2,-130.37 460.12,-135.35"/>
</g>
<!-- VPNCore -->
<g id="node6" class="node">
<title>VPNCore</title>
<polygon fill="none" stroke="black" points="689.38,-124.5 686.38,-128.5 665.38,-128.5 662.38,-124.5 619.38,-124.5 619.38,-88.5 689.38,-88.5 689.38,-124.5"/>
<text xml:space="preserve" text-anchor="middle" x="654.38" y="-101.45" font-family="Times New Roman,serif" font-size="14.00">vpn_core/</text>
</g>
<!-- Root&#45;&gt;VPNCore -->
<g id="edge5" class="edge">
<title>Root&#45;&gt;VPNCore</title>
<path fill="none" stroke="black" d="M452.05,-166.62C495.14,-154.02 563.07,-134.18 608.16,-121"/>
<polygon fill="black" stroke="black" points="609.03,-124.39 617.65,-118.23 607.07,-117.68 609.03,-124.39"/>
</g>
<!-- ServersJSON -->
<g id="node7" class="node">
<title>ServersJSON</title>
<polygon fill="none" stroke="black" points="88.75,-36 85.75,-40 64.75,-40 61.75,-36 0,-36 0,0 88.75,0 88.75,-36"/>
<text xml:space="preserve" text-anchor="middle" x="44.38" y="-12.95" font-family="Times New Roman,serif" font-size="14.00">ServersJSON</text>
</g>
<!-- Config&#45;&gt;ServersJSON -->
<g id="edge6" class="edge">
<title>Config&#45;&gt;ServersJSON</title>
<path fill="none" stroke="black" d="M175.91,-101.37C151.75,-96.77 116.38,-87.61 89.88,-70.5 79.5,-63.8 70.08,-54.1 62.53,-44.92"/>
<polygon fill="black" stroke="black" points="65.47,-43 56.57,-37.24 59.94,-47.29 65.47,-43"/>
<text xml:space="preserve" text-anchor="middle" x="122.12" y="-57.2" font-family="Times New Roman,serif" font-size="14.00">servers.json</text>
</g>
<!-- SettingsJSON -->
<g id="node8" class="node">
<title>SettingsJSON</title>
<polygon fill="none" stroke="black" points="198.25,-36 195.25,-40 174.25,-40 171.25,-36 106.5,-36 106.5,0 198.25,0 198.25,-36"/>
<text xml:space="preserve" text-anchor="middle" x="152.38" y="-12.95" font-family="Times New Roman,serif" font-size="14.00">SettingsJSON</text>
</g>
<!-- Config&#45;&gt;SettingsJSON -->
<g id="edge7" class="edge">
<title>Config&#45;&gt;SettingsJSON</title>
<path fill="none" stroke="black" d="M179.83,-88.17C174.22,-83.04 168.75,-77.03 164.88,-70.5 160.71,-63.48 157.93,-55.15 156.08,-47.25"/>
<polygon fill="black" stroke="black" points="159.56,-46.85 154.25,-37.68 152.69,-48.16 159.56,-46.85"/>
<text xml:space="preserve" text-anchor="middle" x="198.62" y="-57.2" font-family="Times New Roman,serif" font-size="14.00">settings.json</text>
</g>
<!-- ClientConf -->
<g id="node9" class="node">
<title>ClientConf</title>
<polygon fill="none" stroke="black" points="292.38,-36 289.38,-40 268.38,-40 265.38,-36 216.38,-36 216.38,0 292.38,0 292.38,-36"/>
<text xml:space="preserve" text-anchor="middle" x="254.38" y="-12.95" font-family="Times New Roman,serif" font-size="14.00">ClientConf</text>
</g>
<!-- Config&#45;&gt;ClientConf -->
<g id="edge8" class="edge">
<title>Config&#45;&gt;ClientConf</title>
<path fill="none" stroke="black" d="M219.48,-88.08C223.99,-82.69 228.68,-76.56 232.38,-70.5 236.85,-63.17 240.86,-54.76 244.18,-46.89"/>
<polygon fill="black" stroke="black" points="247.39,-48.3 247.86,-37.71 240.89,-45.7 247.39,-48.3"/>
<text xml:space="preserve" text-anchor="middle" x="258.21" y="-57.2" font-family="Times New Roman,serif" font-size="14.00">*.conf</text>
</g>
<!-- LogFile -->
<g id="node10" class="node">
<title>LogFile</title>
<polygon fill="none" stroke="black" points="368.75,-36 365.75,-40 344.75,-40 341.75,-36 310,-36 310,0 368.75,0 368.75,-36"/>
<text xml:space="preserve" text-anchor="middle" x="339.38" y="-12.95" font-family="Times New Roman,serif" font-size="14.00">LogFile</text>
</g>
<!-- Logs&#45;&gt;LogFile -->
<g id="edge9" class="edge">
<title>Logs&#45;&gt;LogFile</title>
<path fill="none" stroke="black" d="M339.38,-88.41C339.38,-76.76 339.38,-61.05 339.38,-47.52"/>
<polygon fill="black" stroke="black" points="342.88,-47.86 339.38,-37.86 335.88,-47.86 342.88,-47.86"/>
<text xml:space="preserve" text-anchor="middle" x="375.38" y="-57.2" font-family="Times New Roman,serif" font-size="14.00">onamvpn.log</text>
</g>
<!-- MainWindow -->
<g id="node11" class="node">
<title>MainWindow</title>
<polygon fill="none" stroke="black" points="480.25,-36 477.25,-40 456.25,-40 453.25,-36 388.5,-36 388.5,0 480.25,0 480.25,-36"/>
<text xml:space="preserve" text-anchor="middle" x="434.38" y="-12.95" font-family="Times New Roman,serif" font-size="14.00">MainWindow</text>
</g>
<!-- GUI&#45;&gt;MainWindow -->
<g id="edge10" class="edge">
<title>GUI&#45;&gt;MainWindow</title>
<path fill="none" stroke="black" d="M456.25,-91.78C448.26,-86.31 440.44,-79.21 435.88,-70.5 432.24,-63.55 430.91,-55.33 430.75,-47.51"/>
<polygon fill="black" stroke="black" points="434.24,-47.83 431.17,-37.69 427.24,-47.53 434.24,-47.83"/>
<text xml:space="preserve" text-anchor="middle" x="483.12" y="-57.2" font-family="Times New Roman,serif" font-size="14.00">main_window.py</text>
</g>
<!-- ServerGrid -->
<g id="node12" class="node">
<title>ServerGrid</title>
<polygon fill="none" stroke="black" points="590.38,-36 587.38,-40 566.38,-40 563.38,-36 514.38,-36 514.38,0 590.38,0 590.38,-36"/>
<text xml:space="preserve" text-anchor="middle" x="552.38" y="-12.95" font-family="Times New Roman,serif" font-size="14.00">ServerGrid</text>
</g>
<!-- GUI&#45;&gt;ServerGrid -->
<g id="edge11" class="edge">
<title>GUI&#45;&gt;ServerGrid</title>
<path fill="none" stroke="black" d="M510.86,-88.79C517.88,-83.58 524.96,-77.37 530.38,-70.5 535.83,-63.57 540.19,-55.08 543.53,-47.01"/>
<polygon fill="black" stroke="black" points="546.73,-48.46 546.95,-37.87 540.17,-46.01 546.73,-48.46"/>
<text xml:space="preserve" text-anchor="middle" x="579.35" y="-57.2" font-family="Times New Roman,serif" font-size="14.00">server_grid.py</text>
</g>
<!-- Handler -->
<g id="node13" class="node">
<title>Handler</title>
<polygon fill="none" stroke="black" points="684.12,-36 681.12,-40 660.12,-40 657.12,-36 624.62,-36 624.62,0 684.12,0 684.12,-36"/>
<text xml:space="preserve" text-anchor="middle" x="654.38" y="-12.95" font-family="Times New Roman,serif" font-size="14.00">Handler</text>
</g>
<!-- VPNCore&#45;&gt;Handler -->
<g id="edge12" class="edge">
<title>VPNCore&#45;&gt;Handler</title>
<path fill="none" stroke="black" d="M654.38,-88.41C654.38,-76.76 654.38,-61.05 654.38,-47.52"/>
<polygon fill="black" stroke="black" points="657.88,-47.86 654.38,-37.86 650.88,-47.86 657.88,-47.86"/>
<text xml:space="preserve" text-anchor="middle" x="689.62" y="-57.2" font-family="Times New Roman,serif" font-size="14.00">*_handler.py</text>
</g>
<!-- Logger -->
<g id="node14" class="node">
<title>Logger</title>
<polygon fill="none" stroke="black" points="775.88,-36 772.88,-40 751.88,-40 748.88,-36 720.88,-36 720.88,0 775.88,0 775.88,-36"/>
<text xml:space="preserve" text-anchor="middle" x="748.38" y="-12.95" font-family="Times New Roman,serif" font-size="14.00">Logger</text>
</g>
<!-- VPNCore&#45;&gt;Logger -->
<g id="edge13" class="edge">
<title>VPNCore&#45;&gt;Logger</title>
<path fill="none" stroke="black" d="M689.84,-94.21C702.65,-88.71 716.41,-80.97 726.38,-70.5 732.72,-63.84 737.37,-55.08 740.73,-46.67"/>
<polygon fill="black" stroke="black" points="743.95,-48.05 743.92,-37.46 737.34,-45.76 743.95,-48.05"/>
<text xml:space="preserve" text-anchor="middle" x="762.9" y="-57.2" font-family="Times New Roman,serif" font-size="14.00">logger.py</text>
</g>
</g>
</svg>
