<?xml version="1.0" encoding="UTF-8" standalone="no"?>
<!DOCTYPE svg PUBLIC "-//W3C//DTD SVG 1.1//EN"
 "http://www.w3.org/Graphics/SVG/1.1/DTD/svg11.dtd">
<!-- Generated by graphviz version 14.1.3 (20260303.0454)
 -->
<!-- Title: OnamVPN_Architecture Pages: 1 -->
<svg width="1633pt" height="265pt"
 viewBox="0.00 0.00 1633.00 265.00" xmlns="http://www.w3.org/2000/svg" xmlns:xlink="http://www.w3.org/1999/xlink">
<g id="graph0" class="graph" transform="scale(1 1) rotate(0) translate(4 260.75)">
<title>OnamVPN_Architecture</title>
<polygon fill="white" stroke="none" points="-4,4 -4,-260.75 1629,-260.75 1629,4 -4,4"/>
<g id="clust1" class="cluster">
<title>cluster_laptop</title>
<path fill="#eef2f5" stroke="#0056b3" stroke-dasharray="5,2" d="M20,-15.75C20,-15.75 961.25,-15.75 961.25,-15.75 967.25,-15.75 973.25,-21.75 973.25,-27.75 973.25,-27.75 973.25,-229.75 973.25,-229.75 973.25,-235.75 967.25,-241.75 961.25,-241.75 961.25,-241.75 20,-241.75 20,-241.75 14,-241.75 8,-235.75 8,-229.75 8,-229.75 8,-27.75 8,-27.75 8,-21.75 14,-15.75 20,-15.75"/>
<text xml:space="preserve" text-anchor="middle" x="490.62" y="-224.45" font-family="Helvetica,sans-Serif" font-weight="bold" font-size="14.00">User Laptop (Windows)</text>
</g>
<g id="clust2" class="cluster">
<title>cluster_security</title>
<path fill="#ffe8cc" stroke="#ffe8cc" d="M729.25,-23.75C729.25,-23.75 953.25,-23.75 953.25,-23.75 959.25,-23.75 965.25,-29.75 965.25,-35.75 965.25,-35.75 965.25,-149.75 965.25,-149.75 965.25,-155.75 959.25,-161.75 953.25,-161.75 953.25,-161.75 729.25,-161.75 729.25,-161.75 723.25,-161.75 717.25,-155.75 717.25,-149.75 717.25,-149.75 717.25,-35.75 717.25,-35.75 717.25,-29.75 723.25,-23.75 729.25,-23.75"/>
<text xml:space="preserve" text-anchor="middle" x="841.25" y="-144.45" font-family="Helvetica,sans-Serif" font-weight="bold" font-size="14.00">Security Posture</text>
</g>
<g id="clust3" class="cluster">
<title>cluster_cloudflare</title>
<path fill="#ff922b" stroke="#ff922b" d="M1167.5,-80.75C1167.5,-80.75 1384.5,-80.75 1384.5,-80.75 1390.5,-80.75 1396.5,-86.75 1396.5,-92.75 1396.5,-92.75 1396.5,-236.75 1396.5,-236.75 1396.5,-242.75 1390.5,-248.75 1384.5,-248.75 1384.5,-248.75 1167.5,-248.75 1167.5,-248.75 1161.5,-248.75 1155.5,-242.75 1155.5,-236.75 1155.5,-236.75 1155.5,-92.75 1155.5,-92.75 1155.5,-86.75 1161.5,-80.75 1167.5,-80.75"/>
<text xml:space="preserve" text-anchor="middle" x="1276" y="-231.45" font-family="Helvetica,sans-Serif" font-weight="bold" font-size="14.00">Cloudflare Global Network (WARP)</text>
</g>
<!-- GUI -->
<g id="node1" class="node">
<title>GUI</title>
<polygon fill="#e0fbfc" stroke="#0077b6" stroke-width="1.5" points="131,-67.5 16,-67.5 16,-28 137,-28 137,-61.5 131,-67.5"/>
<polyline fill="none" stroke="#0077b6" stroke-width="1.5" points="131,-67.5 131,-61.5"/>
<polyline fill="none" stroke="#0077b6" stroke-width="1.5" points="137,-61.5 131,-61.5"/>
<text xml:space="preserve" text-anchor="middle" x="76.5" y="-50.2" font-family="Helvetica,Arial,sans-serif" font-size="14.00">OnamVPN GUI</text>
<text xml:space="preserve" text-anchor="middle" x="76.5" y="-34.45" font-family="Helvetica,Arial,sans-serif" font-size="14.00">(Python/PySide6)</text>
</g>
<!-- VPN_Core -->
<g id="node2" class="node">
<title>VPN_Core</title>
<path fill="#e0fbfc" stroke="#0077b6" stroke-width="1.5" d="M463.5,-95.5C463.5,-95.5 314,-95.5 314,-95.5 308,-95.5 302,-89.5 302,-83.5 302,-83.5 302,-68 302,-68 302,-62 308,-56 314,-56 314,-56 463.5,-56 463.5,-56 469.5,-56 475.5,-62 475.5,-68 475.5,-68 475.5,-83.5 475.5,-83.5 475.5,-89.5 469.5,-95.5 463.5,-95.5"/>
<text xml:space="preserve" text-anchor="middle" x="388.75" y="-78.2" font-family="Helvetica,Arial,sans-serif" font-size="14.00">VPN Core Logic</text>
<text xml:space="preserve" text-anchor="middle" x="388.75" y="-62.45" font-family="Helvetica,Arial,sans-serif" font-size="14.00">(real_windows_wireguard)</text>
</g>
<!-- GUI&#45;&gt;VPN_Core -->
<g id="edge1" class="edge">
<title>GUI&#45;&gt;VPN_Core</title>
<path fill="none" stroke="#6c757d" stroke-width="1.5" d="M137.69,-53.18C180.66,-57.06 239.44,-62.36 289.21,-66.86"/>
<polygon fill="#6c757d" stroke="#6c757d" stroke-width="1.5" points="288.79,-70.33 299.06,-67.75 289.42,-63.36 288.79,-70.33"/>
<text xml:space="preserve" text-anchor="middle" x="219.5" y="-68.34" font-family="Helvetica,Arial,sans-serif" font-size="14.00">User initiates connect</text>
</g>
<!-- Internet -->
<g id="node8" class="node">
<title>Internet</title>
<path fill="#f1f3f5" stroke="#adb5bd" stroke-width="1.5" d="M1613,-39.5C1613,-39.5 1534.75,-39.5 1534.75,-39.5 1528.75,-39.5 1522.75,-33.5 1522.75,-27.5 1522.75,-27.5 1522.75,-12 1522.75,-12 1522.75,-6 1528.75,0 1534.75,0 1534.75,0 1613,0 1613,0 1619,0 1625,-6 1625,-12 1625,-12 1625,-27.5 1625,-27.5 1625,-33.5 1619,-39.5 1613,-39.5"/>
<text xml:space="preserve" text-anchor="middle" x="1573.88" y="-22.2" font-family="Helvetica,Arial,sans-serif" font-size="14.00">Public Internet</text>
<text xml:space="preserve" text-anchor="middle" x="1573.88" y="-6.45" font-family="Helvetica,Arial,sans-serif" font-size="14.00">(Destinations)</text>
</g>
<!-- GUI&#45;&gt;Internet -->
<!-- KS -->
<g id="node3" class="node">
<title>KS</title>
<path fill="#f08080" stroke="#c92a2a" stroke-width="1.5" d="M917.88,-71.5C917.88,-71.5 764.62,-71.5 764.62,-71.5 758.62,-71.5 752.62,-65.5 752.62,-59.5 752.62,-59.5 752.62,-44 752.62,-44 752.62,-38 758.62,-32 764.62,-32 764.62,-32 917.88,-32 917.88,-32 923.88,-32 929.88,-38 929.88,-44 929.88,-44 929.88,-59.5 929.88,-59.5 929.88,-65.5 923.88,-71.5 917.88,-71.5"/>
<text xml:space="preserve" text-anchor="middle" x="841.25" y="-54.2" font-family="Helvetica,Arial,sans-serif" font-size="14.00" fill="#ffffff">Firewall Kill Switch</text>
<text xml:space="preserve" text-anchor="middle" x="841.25" y="-38.45" font-family="Helvetica,Arial,sans-serif" font-size="14.00" fill="#ffffff">(Blocks all non&#45;VPN traffic)</text>
</g>
<!-- VPN_Core&#45;&gt;KS -->
<g id="edge3" class="edge">
<title>VPN_Core&#45;&gt;KS</title>
<path fill="none" stroke="#6c757d" stroke-width="1.5" d="M476.08,-71.15C551.41,-67.14 660.76,-61.31 739.96,-57.09"/>
<polygon fill="#6c757d" stroke="#6c757d" stroke-width="1.5" points="739.84,-60.6 749.64,-56.58 739.47,-53.61 739.84,-60.6"/>
<text xml:space="preserve" text-anchor="middle" x="600.38" y="-69.45" font-family="Helvetica,Arial,sans-serif" font-size="14.00">Enables</text>
</g>
<!-- DNS_LP -->
<g id="node4" class="node">
<title>DNS_LP</title>
<path fill="#f08080" stroke="#c92a2a" stroke-width="1.5" d="M945.25,-129.5C945.25,-129.5 737.25,-129.5 737.25,-129.5 731.25,-129.5 725.25,-123.5 725.25,-117.5 725.25,-117.5 725.25,-102 725.25,-102 725.25,-96 731.25,-90 737.25,-90 737.25,-90 945.25,-90 945.25,-90 951.25,-90 957.25,-96 957.25,-102 957.25,-102 957.25,-117.5 957.25,-117.5 957.25,-123.5 951.25,-129.5 945.25,-129.5"/>
<text xml:space="preserve" text-anchor="middle" x="841.25" y="-112.2" font-family="Helvetica,Arial,sans-serif" font-size="14.00" fill="#ffffff">DNS Leak Protection</text>
<text xml:space="preserve" text-anchor="middle" x="841.25" y="-96.45" font-family="Helvetica,Arial,sans-serif" font-size="14.00" fill="#ffffff">(Blocks DNS except on wgcf&#45;profile)</text>
</g>
<!-- VPN_Core&#45;&gt;DNS_LP -->
<g id="edge4" class="edge">
<title>VPN_Core&#45;&gt;DNS_LP</title>
<path fill="none" stroke="#6c757d" stroke-width="1.5" d="M476.08,-82.27C543.13,-87.33 637.14,-94.42 712.84,-100.13"/>
<polygon fill="#6c757d" stroke="#6c757d" stroke-width="1.5" points="712.33,-103.61 722.56,-100.87 712.85,-96.63 712.33,-103.61"/>
<text xml:space="preserve" text-anchor="middle" x="600.38" y="-102.15" font-family="Helvetica,Arial,sans-serif" font-size="14.00">Enables</text>
</g>
<!-- WG_TUN -->
<g id="node5" class="node">
<title>WG_TUN</title>
<polygon fill="#b2f2bb" stroke="#2b8a3e" stroke-width="1.5" points="923.5,-209.5 920.5,-213.5 899.5,-213.5 896.5,-209.5 759,-209.5 759,-170 923.5,-170 923.5,-209.5"/>
<text xml:space="preserve" text-anchor="middle" x="841.25" y="-192.2" font-family="Helvetica,Arial,sans-serif" font-size="14.00">WireGuard TUN Adapter</text>
<text xml:space="preserve" text-anchor="middle" x="841.25" y="-176.45" font-family="Helvetica,Arial,sans-serif" font-size="14.00">(wgcf&#45;profile)</text>
</g>
<!-- VPN_Core&#45;&gt;WG_TUN -->
<g id="edge2" class="edge">
<title>VPN_Core&#45;&gt;WG_TUN</title>
<path fill="none" stroke="#6c757d" stroke-width="1.5" d="M470.55,-96.2C548.38,-115.89 666.01,-145.66 747.6,-166.3"/>
<polygon fill="#6c757d" stroke="#6c757d" stroke-width="1.5" points="746.61,-169.66 757.16,-168.72 748.33,-162.88 746.61,-169.66"/>
<text xml:space="preserve" text-anchor="middle" x="600.38" y="-165.75" font-family="Helvetica,Arial,sans-serif" font-size="14.00">Creates tunnel &amp; injects wgcf config</text>
</g>
<!-- CF_Edge -->
<g id="node6" class="node">
<title>CF_Edge</title>
<path fill="#ffd8a8" stroke="#e8590c" stroke-width="1.5" d="M1346.12,-211.97C1346.12,-214.69 1314.47,-216.91 1275.5,-216.91 1236.53,-216.91 1204.88,-214.69 1204.88,-211.97 1204.88,-211.97 1204.88,-167.53 1204.88,-167.53 1204.88,-164.81 1236.53,-162.59 1275.5,-162.59 1314.47,-162.59 1346.12,-164.81 1346.12,-167.53 1346.12,-167.53 1346.12,-211.97 1346.12,-211.97"/>
<path fill="none" stroke="#e8590c" stroke-width="1.5" d="M1346.12,-211.97C1346.12,-209.24 1314.47,-207.03 1275.5,-207.03 1236.53,-207.03 1204.88,-209.24 1204.88,-211.97"/>
<text xml:space="preserve" text-anchor="middle" x="1275.5" y="-192.2" font-family="Helvetica,Arial,sans-serif" font-size="14.00">Nearest Edge Node</text>
<text xml:space="preserve" text-anchor="middle" x="1275.5" y="-176.45" font-family="Helvetica,Arial,sans-serif" font-size="14.00">(e.g., 162.159.195.1)</text>
</g>
<!-- WG_TUN&#45;&gt;CF_Edge -->
<g id="edge5" class="edge">
<title>WG_TUN&#45;&gt;CF_Edge</title>
<path fill="none" stroke="#2b8a3e" stroke-width="1.5" d="M924.06,-189.75C1000.96,-189.75 1115.45,-189.75 1192.43,-189.75"/>
<polygon fill="#2b8a3e" stroke="#2b8a3e" stroke-width="1.5" points="1192.18,-193.25 1202.18,-189.75 1192.18,-186.25 1192.18,-193.25"/>
<text xml:space="preserve" text-anchor="middle" x="1063.38" y="-207.95" font-family="Helvetica,Arial,sans-serif" font-size="14.00" fill="#2b8a3e">Encrypted UDP (Port 2408)</text>
<text xml:space="preserve" text-anchor="middle" x="1063.38" y="-192.2" font-family="Helvetica,Arial,sans-serif" font-size="14.00" fill="#2b8a3e">ChaCha20&#45;Poly1305</text>
</g>
<!-- CF_DNS -->
<g id="node7" class="node">
<title>CF_DNS</title>
<ellipse fill="#ffd8a8" stroke="#e8590c" stroke-width="1.5" cx="1275.5" cy="-116.75" rx="77.6" ry="27.93"/>
<text xml:space="preserve" text-anchor="middle" x="1275.5" y="-119.2" font-family="Helvetica,Arial,sans-serif" font-size="14.00">Cloudflare DNS</text>
<text xml:space="preserve" text-anchor="middle" x="1275.5" y="-103.45" font-family="Helvetica,Arial,sans-serif" font-size="14.00">(1.1.1.1)</text>
</g>
<!-- WG_TUN&#45;&gt;CF_DNS -->
<g id="edge6" class="edge">
<title>WG_TUN&#45;&gt;CF_DNS</title>
<path fill="none" stroke="#6c757d" stroke-width="1.5" d="M924.06,-175.93C1000.96,-162.95 1115.45,-143.61 1192.43,-130.61"/>
<polygon fill="#6c757d" stroke="#6c757d" stroke-width="1.5" points="1192.94,-134.07 1202.21,-128.96 1191.77,-127.17 1192.94,-134.07"/>
<text xml:space="preserve" text-anchor="middle" x="1063.38" y="-168.59" font-family="Helvetica,Arial,sans-serif" font-size="14.00">Encrypted DNS queries</text>
</g>
<!-- CF_Edge&#45;&gt;Internet -->
<g id="edge7" class="edge">
<title>CF_Edge&#45;&gt;Internet</title>
<path fill="none" stroke="#e8590c" stroke-width="1.5" d="M1323.79,-162.63C1379.56,-130.64 1471.64,-77.82 1526.85,-46.15"/>
<polygon fill="#e8590c" stroke="#e8590c" stroke-width="1.5" points="1528.48,-49.25 1535.41,-41.24 1525,-43.18 1528.48,-49.25"/>
<text xml:space="preserve" text-anchor="middle" x="1455.62" y="-147.01" font-family="Helvetica,Arial,sans-serif" font-size="14.00" fill="#e8590c">Decrypted traffic</text>
</g>
</g>
</svg>
